<?xml version="1.0" encoding="utf-8"?>
<!-- Generator: Adobe Illustrator 15.0.0, SVG Export Plug-In . SVG Version: 6.00 Build 0)  -->
<!DOCTYPE svg PUBLIC "-//W3C//DTD SVG 1.1//EN" "http://www.w3.org/Graphics/SVG/1.1/DTD/svg11.dtd">
<svg version="1.1" id="Layer_1" xmlns="http://www.w3.org/2000/svg" xmlns:xlink="http://www.w3.org/1999/xlink" x="0px" y="0px"
	 width="274px" height="252px" viewBox="217 250.5 274 252" enable-background="new 217 250.5 274 252" xml:space="preserve">
<image display="none" overflow="visible" enable-background="new    " width="738" height="753" xlink:href="6D802F8A.png" >
</image>
<g>
	<path fill="#999999" d="M374.904,338.868c3.285,1.652,8.783,4.417,12.211,6.124c0.496,0.247,0.872,0.461,1.152,0.637
		c-0.11,3.404,0.466,5.534,1.881,7.035c1.024,1.088,2.4,1.688,3.875,1.688c1.847,0,3.16-0.943,3.64-1.35l0.209-0.177l0.188-0.201
		l9.783-10.562c0.8,0.66,1.969,1.377,3.857,2.539l1.423,0.875c1.816,1.117,5.196,3.198,1.173,10.465
		c-1.064,1.925-1.218,4.104-0.429,6.141c1.622,4.184,7.102,6.789,9.969,7.896L456.2,406.25c-1.33,1.741-1.922,3.384-1.079,5.379
		c0.258,0.61,0.637,1.145,1.104,1.576c0.095,0.713,0.177,1.623,0.206,2.417l0.028,0.793l0.298,0.736l7.108,17.616l-0.329,0.612
		l-1.374,2.563l1.758,2.316l2.86,3.771l3.854,10.924l-1.625,0.967l-5.718,3.402l-2.017,1.2l-0.185,2.34
		c-0.013,0.161-0.025,0.322-0.04,0.487c-0.099-0.206-0.194-0.41-0.291-0.614l-0.574-1.229l-1.153-0.71L451.24,456l-3.046-1.876
		l-2.533,2.527l-3.354,3.347l-1.74,1.736l0.507,2.404l0.103,0.489l-11.362,19.555l-6.789,3.186l-1.632-2.375l-0.159-0.231
		l-0.188-0.211l-2.769-3.12l-1.125-1.268l-1.681-0.219l-6.906-0.898l1.907-5.71l1.354-4.057l-3.971-1.589l-4.043-1.617l-2.601-1.039
		l-2.094,1.857l-5.2,4.617l-0.434,0.385l-0.322,0.482l-5.031,7.51l-15.99,6.034c-2.217-0.724-4.606-1.089-7.133-1.089
		c-4.864,0-9.356,1.373-12.277,2.53l-26.161-30.178l6.394-6.306l3.008-2.967l-2.748-3.209l-29.377-34.301l22.08-22.564l3.211-3.281
		l-2.481-2.369l15.834-16.778l2.817-2.985l-2.692-3.099l-0.354-0.407c1.146,0.878,2.706,2.417,3.869,3.871l5.105,6.417l2.718-7.737
		c1.08-3.072,2.596-3.703,3.062-3.828l6.429,0.629l-2.386-6.693l-0.15-0.422L374.904,338.868 M374.212,333.444l-18.606,16.333
		l1.184,3.321c0,0-4.737,0.113-7.11,6.868c0,0-4.964-6.239-8.197-6.239c-0.672,0-1.27,0.269-1.731,0.92l-4.797,2.768l4.243,4.885
		l-18.928,20.057l2.423,2.312l-24.965,25.511l1.473,1.763l30.585,35.712l-9.419,9.291l31.162,35.944c0,0,6.339-3.523,13.485-3.523
		c2.356,0,4.801,0.383,7.135,1.401l18.946-7.15l5.84-8.716l5.199-4.617l4.043,1.617l-3.356,10.049l0.923,1.04l11.146,1.451
		l2.77,3.12l3.81,5.547l11.556-5.421l12.951-22.285l-0.465-2.196l3.354-3.347l7.792,4.799c0,0,4.955,10.587,6.6,10.587
		c0.104,0,0.193-0.041,0.27-0.13c1.27-1.501,2.087-11.896,2.087-11.896l5.718-3.401l1.846,5.428l4.393-4.27l-6.745-19.12
		l-3.288-4.334l1.331-2.482l-7.902-19.585c0,0-0.208-5.634-1.296-5.634c-0.047,0-0.094,0.01-0.144,0.03
		c-0.072,0.031-0.126,0.046-0.163,0.046c-0.59,0,2.938-3.624,2.938-3.624l-35.837-40.164c0,0-10.625-3.586-8.196-7.973
		c2.43-4.389,5.031-11.722-2.763-16.521c-7.792-4.798-3.146-1.763-7.186-6.733l-13.581,14.661c0,0-0.325,0.275-0.71,0.275
		c-0.634,0-1.431-0.75-1.193-4.724c0,0,1.474-1.586-3.692-4.16C383.97,338.361,374.212,333.444,374.212,333.444L374.212,333.444z"/>
</g>
<line fill="none" stroke="#999999" stroke-width="1.3957" stroke-miterlimit="10" x1="314.205" y1="422.982" x2="336.917" y2="400.587"/>
<line fill="none" stroke="#999999" stroke-width="1.3957" stroke-miterlimit="10" x1="326.726" y1="439.394" x2="337.591" y2="429.003"/>
<polyline fill="none" stroke="#999999" stroke-width="1.3957" stroke-miterlimit="10" points="358.432,399.996 366.402,396.825 
	382.699,381.241 "/>
<line fill="none" stroke="#999999" stroke-width="1.3957" stroke-miterlimit="10" x1="326.416" y1="384.988" x2="349.763" y2="363.519"/>
<line fill="none" stroke="#999999" stroke-width="1.3957" stroke-miterlimit="10" x1="313.028" y1="411.286" x2="350.679" y2="374.608"/>
<polyline fill="none" stroke="#999999" stroke-width="1.3957" stroke-miterlimit="10" points="405.824,390.007 412.034,386.632 
	426.973,372.349 439.271,362.879 451.62,378.021 462.073,389.278 "/>
<line fill="none" stroke="#999999" stroke-width="1.3957" stroke-miterlimit="10" x1="367.114" y1="454.405" x2="383.47" y2="439.517"/>
<polyline fill="none" stroke="#999999" stroke-width="1.3957" stroke-miterlimit="10" points="317.147,428.182 394.614,353.181 
	394.588,351.708 "/>
<line fill="none" stroke="#999999" stroke-width="1.3957" stroke-miterlimit="10" x1="339.987" y1="474.861" x2="400.465" y2="417.176"/>
<line fill="none" stroke="#999999" stroke-width="1.3957" stroke-miterlimit="10" x1="375.104" y1="474.19" x2="451.673" y2="401.01"/>
<polyline fill="none" stroke="#999999" stroke-width="1.3957" stroke-miterlimit="10" points="308.578,403.303 318.23,417.671 
	381.448,483.437 "/>
<polyline fill="none" stroke="#999999" stroke-width="1.3957" stroke-miterlimit="10" points="330.717,463.997 335.923,462.008 
	354.07,445.158 357.139,443.761 374.9,425.641 "/>
<polyline fill="none" stroke="#999999" stroke-width="1.9591" stroke-miterlimit="10" points="450.462,398.737 443.067,401.582 
	440.486,405.237 434.437,409.737 433.358,412.432 428.389,416.473 422.566,422.248 416.437,428.792 412.124,430.637 
	409.602,435.926 403.575,439.73 401.822,443.091 397.098,445.458 390.091,452.937 385.662,454.519 376.032,464.062 355.779,473.047 
	347.082,473.261 344.659,467.6 334.841,462.872 "/>
<polyline fill="none" stroke="#999999" stroke-width="1.3957" stroke-miterlimit="10" points="334.538,446.097 351.316,462.201 
	369.051,484.273 371.012,486.624 "/>
<polyline fill="none" stroke="#999999" stroke-width="1.9591" stroke-miterlimit="10" points="326.478,456.701 330.59,456.994 
	334.095,455.494 336.444,451.293 340.218,449.679 344.136,444.678 352.124,440.237 357.089,436.184 359.241,433.019 
	368.677,428.979 371.396,424.151 376.228,425.753 383.235,422.753 387.213,423.105 398.657,417.801 404.378,416.263 
	416.654,412.903 422.5,420.597 427.845,425.64 435.973,429.726 "/>
<line fill="none" stroke="#999999" stroke-width="1.3957" stroke-miterlimit="10" x1="328.205" y1="417.869" x2="343.593" y2="435.207"/>
<path fill="none" stroke="#999999" stroke-width="1.9591" stroke-miterlimit="10" d="M332.34,421.578l6.874,1.896l8.357-3.575
	c0,0,7.091,3.158,7.014,4.466"/>
<line fill="none" stroke="#999999" stroke-width="1.3957" stroke-miterlimit="10" x1="315.396" y1="396.877" x2="332.598" y2="412.482"/>
<polyline fill="none" stroke="#999999" stroke-width="1.3957" stroke-miterlimit="10" points="326.568,385.72 340.494,405.595 
	357.076,422.741 398.94,467.66 "/>
<line fill="none" stroke="#999999" stroke-width="1.3957" stroke-miterlimit="10" x1="352.908" y1="439.833" x2="379.881" y2="467.841"/>
<line fill="none" stroke="#999999" stroke-width="1.3957" stroke-miterlimit="10" x1="348.65" y1="473.865" x2="360.155" y2="485.849"/>
<polyline fill="none" stroke="#999999" stroke-width="1.9591" stroke-miterlimit="10" points="370.122,426.914 402.336,460.467 
	405.008,466.711 "/>
<polyline fill="none" stroke="#999999" stroke-width="1.3957" stroke-miterlimit="10" points="369.934,484.853 377.255,478.851 
	406.111,450.878 "/>
<polyline fill="none" stroke="#999999" stroke-width="1.9591" stroke-miterlimit="10" points="362.567,417.68 345.86,400.988 
	358.808,399.196 360.74,401.48 362.358,400.788 366.036,404.915 365.719,407.901 387.146,429.658 "/>
<polyline fill="none" stroke="#999999" stroke-width="1.3957" stroke-miterlimit="10" points="341.678,363.627 346.064,367.175 
	359.182,385.164 373.992,405.617 385.188,418.37 389.922,420.49 401.889,433.55 405.424,438.098 408.658,441.179 414.469,447.305 
	415.661,449.346 416.668,441.26 421.138,436.797 425.379,427.329 "/>
<polyline fill="none" stroke="#999999" stroke-width="1.3957" stroke-miterlimit="10" points="393.028,436.7 405.264,449.646 
	410.191,452.962 402.255,460.502 "/>
<path fill="#999999" stroke="#999999" stroke-width="1.3957" stroke-miterlimit="10" d="M405.121,465.336l9.727-6.712l2.891-4.425
	l14.834-17.51l1.464-0.309c0,0-0.733,3.503-0.928,4.544c-0.192,1.039,4.231,3.929,4.231,3.929l9.524-20.977l-0.075-3.157l1.85-2.387
	l1.271,0.732l4.507-2.886l-0.156,2.618l-13.379,28.371l6.004,2.852l2.857-10.472l2.114-0.268l1.821-15.131l3.119-1.652
	c0,0,2.229,11.167,0.801,13.052c-1.426,1.885,2.04,1.041,2.04,1.041l0.817-11.513l-0.807-6.353l-2.461-7.239l0.236-6.161
	l-2.964-3.197c0,0-18.999,27.901-20.656,31.483c-1.657,3.577-0.347-0.811-0.347-0.811l-4.892,2.729l-1.041,2.04l-7.397,7.311
	l-4.469,4.464l-1.192-2.041l-4.276,5.657l2.038,1.04l-0.695,5.082L405.121,465.336z"/>
<polyline fill="none" stroke="#999999" stroke-width="1.3957" stroke-miterlimit="10" points="332.988,446.759 382.4,399.55 
	386.618,407.552 392.277,411.829 396.93,417.491 397.666,418.184 "/>
<polyline fill="none" stroke="#999999" stroke-width="1.3957" stroke-miterlimit="10" points="374.04,389.331 382.543,398.771 
	366.27,380.854 351.495,364.212 "/>
<path fill="none" stroke="#999999" stroke-width="1.3957" stroke-miterlimit="10" d="M360.201,354.746l5.274,1.892l9,14.328
	l15.545,16.951c0,0,12.399-3.072,10.276,3.896l3.076,5.7l-3.201,7.43l1.577,2.194l5.853,1.004l-3.97,7.122l9.427,9.361
	l-10.979,10.118l-5.199,1.268l-2.157,3.157l-12.637,11.464l-5.009,4.697l-7.123,2.727l-2.854,6.004l-3.659,1.884l-6.126,5.812"/>
<polyline fill="none" stroke="#999999" stroke-width="1.3957" stroke-miterlimit="10" points="385.518,381.868 386.754,376.558 
	385.562,372.282 388.07,367.702 384.261,363.271 "/>
<path fill="none" stroke="#999999" stroke-width="1.9591" stroke-miterlimit="10" d="M387.927,367.364l7.938,7.371l5.931-2.537
	l0.842-9.213c0,0,7.7,0.854,3.898-12.51"/>
<polyline fill="none" stroke="#999999" stroke-width="1.3957" stroke-miterlimit="10" points="401.981,345.804 415.105,357.092 
	416.448,363.216 413.247,372.877 405.584,375.836 401.852,372.331 "/>
<polyline fill="none" stroke="#999999" stroke-width="1.9591" stroke-miterlimit="10" points="407.86,409.491 413.507,413 
	415.934,411.961 409.098,406.545 405.062,397.11 402.248,392.333 405.428,376.063 407.8,380.948 415.446,389.16 421.607,395.387 "/>
<polyline fill="none" stroke="#999999" stroke-width="1.3957" stroke-miterlimit="10" points="425.409,437.841 423.831,435.644 
	421.023,434.294 413.059,424.625 420.187,417.429 423.229,414.853 429.009,410.467 436.136,403.271 446.348,392.845 "/>
<polyline fill="none" stroke="#999999" stroke-width="1.3957" stroke-miterlimit="10" points="425.054,393.022 438.098,405.622 
	447.188,412.896 "/>
<polyline fill="none" stroke="#999999" stroke-width="1.3957" stroke-miterlimit="10" points="404,384.808 412.494,405.412 
	420.039,408.881 423.229,414.853 430.119,420.516 432.581,423.289 "/>
<polyline fill="none" stroke="#999999" stroke-width="1.3957" stroke-miterlimit="10" points="418.976,444.418 416.668,441.26 
	413.012,438.679 "/>
<polyline fill="none" stroke="#999999" stroke-width="1.3957" stroke-miterlimit="10" points="416.668,441.26 423.139,436.258 
	426.302,427.252 421.916,423.706 "/>
<polyline fill="none" stroke="#999999" stroke-width="1.3957" stroke-miterlimit="10" points="426.302,427.252 434.737,422.369 
	444.062,413.596 445.374,406.973 453.384,402.59 "/>
<polyline fill="none" stroke="#999999" stroke-width="1.3957" stroke-miterlimit="10" points="408.334,409.105 436.572,382.673 
	464.29,356.097 "/>
<line fill="none" stroke="#999999" stroke-width="1.3957" stroke-miterlimit="10" x1="411.475" y1="373.955" x2="427.058" y2="390.251"/>
<polyline fill="none" stroke="#999999" stroke-width="1.3957" stroke-miterlimit="10" points="403.185,394.086 406.995,394.052 
	409.402,394.455 430.004,374.399 "/>
<path fill="#999999" stroke="#999999" stroke-width="1.9591" stroke-miterlimit="10" d="M440.434,454.565
	c-7.786,11.621-22.764-0.403-22.764-0.403c5.266,13.056-8.258,17.918-8.258,17.918s-3.26,8.744-2.45,8.398
	c0.809-0.347,9.09,1.859,9.09,1.859l6.776,7.629l6.703-4.461l4.783-9.697l-1.538-2.85l-2.501,0.112l-8.437,2.65l-2.807-1.351
	l-1.248,1.81l-1.857,1.113l-3.207-7.493"/>
<line fill="none" stroke="#999999" stroke-width="1.3957" stroke-miterlimit="10" x1="423.622" y1="463.481" x2="427.504" y2="473.301"/>
<polygon fill="#999999" stroke="#999999" stroke-width="1.9591" stroke-miterlimit="10" points="440.716,464.3 437.932,457.756 
	444.082,453.452 444.543,454.531 449.391,453.413 451.062,455.569 441.767,464.65 "/>
<polygon fill="#999999" stroke="#999999" stroke-width="1.9591" stroke-miterlimit="10" points="461.795,460.228 458.171,458.109 
	459.223,457.421 462.583,459.212 463.735,456.647 458.15,452.497 462.196,450.769 465.487,455.438 470.403,452.719 471.901,456.223 
	"/>
<polygon fill="#999999" stroke="#999999" stroke-width="1.3957" stroke-miterlimit="10" points="467.257,445.452 465.756,446.413 
	464.408,444.757 458.13,448.721 459.981,441.865 466.259,442.372 "/>
<path fill="none" stroke="#999999" stroke-width="1.3957" stroke-miterlimit="10" d="M393.72,434.691
	c0.718,0.902,0.612,2.178-0.229,2.842l0,0c-0.843,0.669-2.107,0.477-2.82-0.428l-2.592-3.271c-0.718-0.901-0.612-2.176,0.229-2.844
	l0,0c0.843-0.667,2.104-0.476,2.82,0.428L393.72,434.691z"/>
<line fill="none" stroke="#999999" stroke-width="1.3957" stroke-miterlimit="10" x1="296.112" y1="411.825" x2="256.25" y2="351.021"/>
<path fill="none" stroke="#999999" stroke-width="1.3957" stroke-miterlimit="10" d="M275.021,334.538l12.115,21.465
	c0,0,17.104,7.122,20.748,14.366c0,0,4.636,7.761,11.715-6.065c7.08-13.83,9.351-19.496,9.351-19.496l1.024-5.839
	c0,0,10.331-20.854,11.013-20.909c0.68-0.058,7.345-9.717,13.157-11.498c5.812-1.783,30.053-15.908,30.053-15.908l18.264-9.459"/>
<path fill="none" stroke="#999999" stroke-width="1.3957" stroke-miterlimit="10" d="M251.361,413.236c0,0,7.242,2.012,10.65,0.101
	c3.408-1.912,8.039-4.258,8.039-4.258l11.164-9.574l18.869-16.055l8.322-6.545c0,0,0.73-5.076-0.521-6.536"/>
<path fill="none" stroke="#999999" stroke-width="1.3957" stroke-miterlimit="10" d="M338.266,407.188l-10.306-10.449l-6.86-7.724
	l-8.156-10.832c0,0-0.595-6.14,1.675-6.966"/>
<polyline fill="none" stroke="#999999" stroke-width="1.3957" stroke-miterlimit="10" points="312.943,378.183 308.407,376.905 
	312.979,372.224 "/>
<path fill="none" stroke="#999999" stroke-width="1.3957" stroke-miterlimit="10" d="M239.776,395.86l10.044-8.282l3.969-1.698
	l15.54-14.16c0,0,5.529-3.539,1.11-8.927c-4.418-5.389,2.671-7.481,2.671-7.481s5.103-2.887,7.878-0.789
	c2.777,2.099,6.376,3.377,10.349-1.608c3.97-4.985,5.472-4.218,5.472-4.218l10.016-7.869l20.306-17.545l17.632-15.055l0.623-1.91
	l14.893-11.771l2.773-1.188l12.924-10.223l3.969-4.515l6.713-0.524c0,0,9.79-3.246,8.897-4.279"/>
<polyline fill="none" stroke="#999999" stroke-width="1.3957" stroke-miterlimit="10" points="236.307,367.008 249.82,387.579 
	265.494,411.05 270.676,418.767 "/>
<polyline fill="none" stroke="#999999" stroke-width="1.3957" stroke-miterlimit="10" points="293.096,320.14 306.823,340.828 
	345.86,400.988 "/>
<polyline fill="none" stroke="#999999" stroke-width="1.3957" stroke-miterlimit="10" points="254.001,415.226 263.104,407.472 
	263.621,408.244 282.553,391.654 285.247,388.623 300.871,376.306 303.521,380.746 313.839,395.644 "/>
<line fill="none" stroke="#999999" stroke-width="1.3957" stroke-miterlimit="10" x1="314.899" y1="422.924" x2="312.703" y2="424.501"/>
<path fill="none" stroke="#999999" stroke-width="5.1804" stroke-miterlimit="10" d="M284.518,422.037l-11.137-4.076
	c-16.299,4.706-25.361-8.248-25.361-8.248l-7.729-13.127l-14.81-20.899l30.77-24.666l18.771-16.482l18.072-14.396l20.637-16.953
	l17.839-15.377l17.854-14.918l10.901-8.185c0,0,9.271-9.834,12.161-8.019c2.89,1.814,7.228-1.215,7.228-1.215l16.285,18.859
	l16.553,17.569l12.281,16.815c0,0-1.028,5.369,8.353,8.635c9.379,3.266,6.689,9.051,6.689,9.051l13.568,17.265l15.962,18.292
	l9.345,10.324c-10.009,5.689-9.301,6.795-13.748,10.666c-4.448,3.87-1.967,9.672,2.169,13.304c4.139,3.628-5.737,9.912-5.737,9.912"
	/>
<line fill="none" stroke="#999999" stroke-width="1.2951" stroke-miterlimit="10" x1="315.903" y1="421.307" x2="304.538" y2="404.631"/>
<line fill="none" stroke="#999999" stroke-width="1.2951" stroke-miterlimit="10" x1="329.029" y1="437.507" x2="315.634" y2="420.908"/>
<polyline fill="none" stroke="#999999" stroke-width="1.3957" stroke-miterlimit="10" points="332.248,372.039 333.471,373.519 
	335.856,375.368 339.856,380.993 343.358,381.726 351.746,393.128 358.249,398.639 "/>
<line fill="none" stroke="#999999" stroke-width="1.3957" stroke-miterlimit="10" x1="326.88" y1="386.072" x2="325.524" y2="384.539"/>
<polyline fill="none" stroke="#999999" stroke-width="1.3957" stroke-miterlimit="10" points="361.054,356.192 366.502,353.009 
	369.554,353.497 374.433,357.278 380.418,366.927 382.639,371.62 394.894,387 402.94,385.499 405.538,384.866 424.089,367.841 "/>
<polyline fill="none" stroke="#999999" stroke-width="1.3957" stroke-miterlimit="10" points="300.871,376.306 333.001,349.881 
	339.949,341.979 343.719,340.366 356.905,330.03 358.348,327.3 372.957,315.416 375.705,314.71 385.82,306.157 393.544,299.331 
	396.07,295.903 401.655,291.399 408.966,293.672 412.552,291.903 "/>
<polyline fill="none" stroke="#999999" stroke-width="1.3957" stroke-miterlimit="10" points="314.295,302.702 321.006,314.163 
	327.916,323.181 333.615,331.704 339.949,341.979 351.42,359.461 "/>
<polyline fill="none" stroke="#999999" stroke-width="1.3957" stroke-miterlimit="10" points="331.084,287.783 346.551,312.007 
	357.267,329.345 365.627,342.733 369.252,348.46 369.554,353.497 "/>
<polyline fill="none" stroke="#999999" stroke-width="5.1804" stroke-miterlimit="10" points="324.523,452.134 321.172,449.555 
	317.178,446.804 309.736,443.671 302.744,437.213 299.246,432.876 294.971,430.01 291.668,424.49 284.887,422.353 "/>
<path fill="none" stroke="#999999" stroke-width="1.3957" stroke-miterlimit="10" d="M349.424,272.894l13.118,20.92l5.185,6.11
	l4.696,9.854l3.853,4.452l11.859,20.754c0,0,6.569,8.222,8.557,7.375c1.983-0.848,5.69,8.365,5.181,8.817
	c-0.51,0.453,0.854,1.993,0.854,1.993l11.437-10.771"/>
<path fill="none" stroke="#999999" stroke-width="1.3957" stroke-miterlimit="10" d="M360.325,264.708l4.639,6.234l4.663,2.953
	l4.198,6.403l3.685,5.702l8.436,20.809c0,0,2.289,8.646,3.96,9.81c1.672,1.163,3.428,2.995,3.428,2.995l5.664,8.376l7.39,10.69"/>
<polyline fill="none" stroke="#999999" stroke-width="1.3957" stroke-miterlimit="10" points="400.76,325.79 398.629,324.39 
	396.987,322.745 394.011,324.019 394.093,325.861 396.647,329.229 395.704,332.801 399.528,334.101 401.173,333.631 
	403.448,329.841 400.415,325.269 406.313,320.397 424.46,309.583 "/>
<polyline fill="none" stroke="#999999" stroke-width="1.3957" stroke-miterlimit="10" points="395.82,329.349 390.318,334.049 
	386.997,335.001 383.401,338.063 "/>
<polyline fill="none" stroke="#999999" stroke-width="1.3957" stroke-miterlimit="10" points="383.246,291.204 389.977,292.642 
	396.671,301.515 401.669,310.646 409.168,329.271 409.071,335.853 "/>
<polyline fill="none" stroke="#999999" stroke-width="1.3957" stroke-miterlimit="10" points="439.271,362.879 441.039,351.088 
	441.914,353.135 452.975,343.869 "/>
<polyline fill="none" stroke="#999999" stroke-width="1.3957" stroke-miterlimit="10" points="439.323,329.519 443.228,338.647 
	440.842,349.529 "/>
<polyline fill="none" stroke="#999999" stroke-width="1.3957" stroke-miterlimit="10" points="439.438,327.591 425.348,330.333 
	417.098,339.027 409.077,337.292 "/>
<line fill="none" stroke="#999999" stroke-width="1.3957" stroke-miterlimit="10" x1="439.777" y1="330.029" x2="438.645" y2="327.931"/>
<line fill="none" stroke="#999999" stroke-width="1.3957" stroke-miterlimit="10" x1="368.933" y1="257.741" x2="386.044" y2="289.158"/>
<polyline fill="none" stroke="#999999" stroke-width="1.3957" stroke-miterlimit="10" points="372.509,278.289 376.944,275.899 
	379.059,277.122 "/>
<polyline fill="none" stroke="#999999" stroke-width="1.3957" stroke-miterlimit="10" points="389.977,292.642 390.559,287.228 
	383.634,285.494 "/>
<polyline fill="none" stroke="#999999" stroke-width="1.3957" stroke-miterlimit="10" points="441.612,385.354 451.19,377.492 
	469.405,361.96 "/>
<polyline fill="none" stroke="#999999" stroke-width="1.3957" stroke-miterlimit="10" points="402.725,353.168 401.554,356.476 
	387.319,366.828 352.562,393.894 "/>
<path fill="none" stroke="#999999" stroke-width="1.3957" stroke-miterlimit="10" d="M449.485,394.429l3.091-3.201
	c0,0,1.991-10.711,4.429-11.049c2.439-0.339,16.752-13.412,16.752-13.412"/>
<path fill="none" stroke="#999999" stroke-width="1.3957" stroke-miterlimit="10" d="M427.683,314.435c0,0,0.904,5.356,3.554,10.443
	c2.646,5.09-1.771,4.653-1.771,4.653l1.236,6.727c0,0,4.166,3.148,5.353,5.927c1.189,2.778,5.821,1.267,5.821,1.267"/>
<polyline fill="none" stroke="#999999" stroke-width="1.3957" stroke-miterlimit="10" points="431.813,374.521 441.749,365.921 
	447.024,362.334 449.335,362.799 452.68,361.838 467.63,380.438 "/>
<line fill="none" stroke="#999999" stroke-width="1.2951" stroke-miterlimit="10" x1="294.215" y1="389.013" x2="305.34" y2="403.938"/>
<line fill="none" stroke="#999999" stroke-width="1.2951" stroke-miterlimit="10" x1="283.514" y1="421.669" x2="305.61" y2="404.572"/>
<polyline fill="none" stroke="#999999" stroke-width="1.2951" stroke-miterlimit="10" points="325.521,453.683 322.461,450.545 
	329.218,444.49 322.476,436.905 314.612,428.181 302.744,437.213 "/>
<path fill="none" stroke="#999999" stroke-width="1.2951" stroke-miterlimit="10" d="M298.277,432.225c0,0,5.762-5.979,17.579,8.335
	c0,0,4.11-2.988,10.832,6.196"/>
<path fill="none" stroke="#999999" stroke-width="1.2951" stroke-miterlimit="10" d="M337.901,357.882c0,0-3.946,1.079-11.408-7.574
	"/>
<line fill="none" stroke="#999999" stroke-width="1.2951" stroke-miterlimit="10" x1="296.143" y1="411.898" x2="308" y2="432.278"/>
</svg>
