<?xml version="1.0" encoding="utf-8"?>
<!-- Generator: Adobe Illustrator 15.0.0, SVG Export Plug-In  -->
<!DOCTYPE svg PUBLIC "-//W3C//DTD SVG 1.1//EN" "http://www.w3.org/Graphics/SVG/1.1/DTD/svg11.dtd" [
	<!ENTITY ns_flows "http://ns.adobe.com/Flows/1.0/">
]>
<svg version="1.1"
	 xmlns="http://www.w3.org/2000/svg" xmlns:xlink="http://www.w3.org/1999/xlink" xmlns:a="http://ns.adobe.com/AdobeSVGViewerExtensions/3.0/"
	 x="0px" y="0px" width="554px" height="251px" viewBox="-10.122 -3.219 554 251"
	 overflow="visible" enable-background="new -10.122 -3.219 554 251" xml:space="preserve">
<defs>
</defs>
<circle fill="#B70050" cx="118.556" cy="3.868" r="3.867"/>
<path fill="#B70050" d="M128.406,21.983l-3.065-9.527c-0.021-0.064-0.052-0.121-0.08-0.181c-1.22-3.089-3.938-3.817-4.897-3.817
	c-0.87,0-0.672,0-1.577,0c-0.204,0-0.37,0-0.513,0c-0.904,0-0.706,0-1.575,0c-0.961,0-3.678,0.728-4.897,3.817
	c-0.029,0.06-0.06,0.116-0.08,0.181l-3.066,9.527c-0.263,0.797,0.17,1.66,0.969,1.922c0.798,0.263,1.658-0.17,1.92-0.968l2.954-9.18
	h0.692l-5.041,15.743h4.112v12.476c0,0.993,0.806,1.798,1.799,1.798s1.799-0.806,1.799-1.798V29.501h1.344v12.476
	c0,0.993,0.805,1.798,1.8,1.798c0.992,0,1.798-0.806,1.798-1.798V29.501h4.112l-5.04-15.743h0.69l2.955,9.18
	c0.263,0.797,1.123,1.231,1.92,0.968C128.236,23.643,128.67,22.78,128.406,21.983z"/>
<circle fill="#B70050" cx="145.722" cy="3.868" r="3.867"/>
<path fill="#B70050" d="M155.573,21.983l-3.066-9.527c-0.021-0.064-0.052-0.121-0.08-0.181c-1.22-3.089-3.938-3.817-4.897-3.817
	c-0.869,0-0.672,0-1.577,0c-0.204,0-0.37,0-0.513,0c-0.904,0-0.706,0-1.575,0c-0.96,0-3.678,0.728-4.897,3.817
	c-0.029,0.06-0.06,0.116-0.08,0.181l-3.066,9.527c-0.263,0.797,0.17,1.66,0.969,1.922c0.798,0.263,1.658-0.17,1.921-0.968
	l2.953-9.18h0.692l-5.041,15.743h4.112v12.476c0,0.993,0.807,1.798,1.799,1.798c0.994,0,1.8-0.806,1.8-1.798V29.501h1.343v12.476
	c0,0.993,0.806,1.798,1.8,1.798c0.992,0,1.799-0.806,1.799-1.798V29.501h4.112l-5.041-15.743h0.69l2.955,9.18
	c0.263,0.797,1.123,1.231,1.921,0.968C155.402,23.643,155.836,22.78,155.573,21.983z"/>
<circle fill="#B70050" cx="172.888" cy="3.868" r="3.867"/>
<path fill="#B70050" d="M182.739,21.983l-3.066-9.527c-0.021-0.064-0.052-0.121-0.08-0.181c-1.22-3.089-3.938-3.817-4.897-3.817
	c-0.869,0-0.672,0-1.577,0c-0.204,0-0.37,0-0.513,0c-0.904,0-0.705,0-1.575,0c-0.96,0-3.678,0.728-4.897,3.817
	c-0.028,0.06-0.06,0.116-0.08,0.181l-3.065,9.527c-0.264,0.797,0.169,1.66,0.969,1.922c0.797,0.263,1.657-0.17,1.92-0.968
	l2.953-9.18h0.692l-5.041,15.743h4.113v12.476c0,0.993,0.806,1.798,1.798,1.798c0.994,0,1.8-0.806,1.8-1.798V29.501h1.343v12.476
	c0,0.993,0.806,1.798,1.8,1.798c0.993,0,1.799-0.806,1.799-1.798V29.501h4.112l-5.041-15.743h0.691l2.955,9.18
	c0.262,0.797,1.122,1.231,1.92,0.968C182.568,23.643,183.002,22.78,182.739,21.983z"/>
<circle fill="#B70050" cx="200.054" cy="3.868" r="3.867"/>
<path fill="#B70050" d="M209.905,21.983l-3.066-9.527c-0.021-0.064-0.052-0.121-0.08-0.181c-1.219-3.089-3.938-3.817-4.897-3.817
	c-0.869,0-0.672,0-1.577,0c-0.204,0-0.37,0-0.513,0c-0.904,0-0.705,0-1.575,0c-0.96,0-3.678,0.728-4.897,3.817
	c-0.028,0.06-0.06,0.116-0.08,0.181l-3.065,9.527c-0.264,0.797,0.169,1.66,0.969,1.922c0.797,0.263,1.657-0.17,1.92-0.968
	l2.953-9.18h0.692l-5.04,15.743h4.112v12.476c0,0.993,0.806,1.798,1.798,1.798c0.994,0,1.8-0.806,1.8-1.798V29.501h1.344v12.476
	c0,0.993,0.805,1.798,1.799,1.798c0.993,0,1.799-0.806,1.799-1.798V29.501h4.112l-5.041-15.743h0.691l2.955,9.18
	c0.262,0.797,1.122,1.231,1.92,0.968C209.734,23.643,210.168,22.78,209.905,21.983z"/>
<circle fill="#B70050" cx="227.22" cy="3.868" r="3.867"/>
<path fill="#B70050" d="M237.071,21.983l-3.066-9.527c-0.021-0.064-0.052-0.121-0.08-0.181c-1.219-3.089-3.938-3.817-4.897-3.817
	c-0.869,0-0.672,0-1.576,0c-0.205,0-0.371,0-0.514,0c-0.903,0-0.705,0-1.575,0c-0.96,0-3.678,0.728-4.896,3.817
	c-0.029,0.06-0.061,0.116-0.081,0.181l-3.065,9.527c-0.264,0.797,0.17,1.66,0.969,1.922c0.797,0.263,1.658-0.17,1.92-0.968
	l2.953-9.18h0.692l-5.04,15.743h4.112v12.476c0,0.993,0.806,1.798,1.798,1.798c0.994,0,1.8-0.806,1.8-1.798V29.501h1.344v12.476
	c0,0.993,0.805,1.798,1.799,1.798c0.993,0,1.799-0.806,1.799-1.798V29.501h4.112l-5.041-15.743h0.691l2.955,9.18
	c0.262,0.797,1.122,1.231,1.92,0.968C236.9,23.643,237.334,22.78,237.071,21.983z"/>
<circle fill="#B70050" cx="254.386" cy="3.868" r="3.867"/>
<path fill="#B70050" d="M264.237,21.983l-3.065-9.527c-0.021-0.064-0.053-0.121-0.081-0.181c-1.219-3.089-3.938-3.817-4.897-3.817
	c-0.869,0-0.671,0-1.576,0c-0.204,0-0.371,0-0.513,0c-0.904,0-0.706,0-1.575,0c-0.961,0-3.679,0.728-4.897,3.817
	c-0.029,0.06-0.06,0.116-0.081,0.181l-3.065,9.527c-0.263,0.797,0.17,1.66,0.969,1.922c0.798,0.263,1.658-0.17,1.92-0.968
	l2.953-9.18h0.693l-5.041,15.743h4.112v12.476c0,0.993,0.806,1.798,1.799,1.798s1.799-0.806,1.799-1.798V29.501h1.344v12.476
	c0,0.993,0.805,1.798,1.799,1.798c0.993,0,1.799-0.806,1.799-1.798V29.501h4.112l-5.04-15.743h0.69l2.955,9.18
	c0.262,0.797,1.123,1.231,1.92,0.968C264.067,23.643,264.501,22.78,264.237,21.983z"/>
<circle fill="#B70050" cx="281.553" cy="3.868" r="3.867"/>
<path fill="#B70050" d="M291.403,21.983l-3.065-9.527c-0.021-0.064-0.053-0.121-0.08-0.181c-1.22-3.089-3.938-3.817-4.897-3.817
	c-0.87,0-0.672,0-1.577,0c-0.204,0-0.371,0-0.513,0c-0.904,0-0.706,0-1.575,0c-0.961,0-3.679,0.728-4.897,3.817
	c-0.029,0.06-0.06,0.116-0.08,0.181l-3.066,9.527c-0.263,0.797,0.17,1.66,0.969,1.922c0.798,0.263,1.658-0.17,1.92-0.968l2.953-9.18
	h0.693l-5.041,15.743h4.112v12.476c0,0.993,0.806,1.798,1.799,1.798s1.799-0.806,1.799-1.798V29.501h1.344v12.476
	c0,0.993,0.805,1.798,1.8,1.798c0.992,0,1.798-0.806,1.798-1.798V29.501h4.112l-5.04-15.743h0.69l2.955,9.18
	c0.263,0.797,1.123,1.231,1.92,0.968C291.233,23.643,291.667,22.78,291.403,21.983z"/>
<circle fill="#B70050" cx="308.719" cy="3.868" r="3.867"/>
<path fill="#B70050" d="M318.569,21.983l-3.065-9.527c-0.021-0.064-0.052-0.121-0.08-0.181c-1.22-3.089-3.938-3.817-4.897-3.817
	c-0.87,0-0.672,0-1.577,0c-0.204,0-0.37,0-0.513,0c-0.904,0-0.706,0-1.575,0c-0.961,0-3.678,0.728-4.897,3.817
	c-0.029,0.06-0.06,0.116-0.08,0.181l-3.066,9.527c-0.263,0.797,0.17,1.66,0.969,1.922c0.798,0.263,1.658-0.17,1.92-0.968l2.954-9.18
	h0.692l-5.041,15.743h4.112v12.476c0,0.993,0.806,1.798,1.799,1.798s1.799-0.806,1.799-1.798V29.501h1.344v12.476
	c0,0.993,0.805,1.798,1.8,1.798c0.992,0,1.798-0.806,1.798-1.798V29.501h4.112l-5.04-15.743h0.69l2.955,9.18
	c0.263,0.797,1.123,1.231,1.92,0.968C318.399,23.643,318.833,22.78,318.569,21.983z"/>
<circle fill="#B70050" cx="336.796" cy="3.867" r="3.867"/>
<path fill="#B70050" d="M346.647,21.982l-3.065-9.527c-0.021-0.064-0.053-0.121-0.081-0.18c-1.219-3.089-3.938-3.817-4.897-3.817
	c-0.869,0-0.671,0-1.576,0c-0.204,0-0.371,0-0.513,0c-0.904,0-0.706,0-1.575,0c-0.961,0-3.679,0.728-4.897,3.817
	c-0.029,0.059-0.06,0.116-0.081,0.18l-3.065,9.527c-0.264,0.797,0.17,1.66,0.969,1.922c0.798,0.263,1.658-0.17,1.92-0.968
	l2.953-9.179h0.692L328.39,29.5h4.112v12.476c0,0.993,0.806,1.798,1.799,1.798s1.799-0.806,1.799-1.798V29.5h1.344v12.476
	c0,0.993,0.805,1.798,1.799,1.798c0.993,0,1.799-0.806,1.799-1.798V29.5h4.112l-5.04-15.743h0.69l2.955,9.179
	c0.262,0.797,1.122,1.231,1.92,0.968C346.478,23.642,346.91,22.78,346.647,21.982z"/>
<circle fill="#B70050" cx="363.963" cy="3.867" r="3.867"/>
<path fill="#B70050" d="M373.813,21.982l-3.065-9.527c-0.021-0.064-0.053-0.121-0.08-0.18c-1.22-3.089-3.938-3.817-4.897-3.817
	c-0.87,0-0.672,0-1.577,0c-0.204,0-0.371,0-0.513,0c-0.904,0-0.706,0-1.575,0c-0.961,0-3.679,0.728-4.897,3.817
	c-0.029,0.059-0.06,0.116-0.08,0.18l-3.066,9.527c-0.263,0.797,0.17,1.66,0.969,1.922c0.798,0.263,1.658-0.17,1.92-0.968
	l2.953-9.179h0.693L355.556,29.5h4.112v12.476c0,0.993,0.806,1.798,1.799,1.798s1.799-0.806,1.799-1.798V29.5h1.344v12.476
	c0,0.993,0.805,1.798,1.8,1.798c0.992,0,1.798-0.806,1.798-1.798V29.5h4.112l-5.04-15.743h0.69l2.955,9.179
	c0.263,0.797,1.123,1.231,1.92,0.968C373.644,23.642,374.077,22.78,373.813,21.982z"/>
<circle fill="#B70050" cx="391.129" cy="3.867" r="3.867"/>
<path fill="#B70050" d="M400.979,21.982l-3.065-9.527c-0.021-0.064-0.052-0.121-0.08-0.18c-1.22-3.089-3.938-3.817-4.897-3.817
	c-0.87,0-0.672,0-1.577,0c-0.204,0-0.37,0-0.513,0c-0.904,0-0.706,0-1.575,0c-0.961,0-3.679,0.728-4.897,3.817
	c-0.029,0.059-0.06,0.116-0.08,0.18l-3.066,9.527c-0.263,0.797,0.17,1.66,0.969,1.922c0.798,0.263,1.658-0.17,1.92-0.968
	l2.954-9.179h0.692L382.722,29.5h4.112v12.476c0,0.993,0.806,1.798,1.799,1.798s1.799-0.806,1.799-1.798V29.5h1.344v12.476
	c0,0.993,0.805,1.798,1.8,1.798c0.992,0,1.798-0.806,1.798-1.798V29.5h4.112l-5.04-15.743h0.69l2.955,9.179
	c0.263,0.797,1.123,1.231,1.92,0.968C400.81,23.642,401.243,22.78,400.979,21.982z"/>
<circle fill="#B70050" cx="418.295" cy="3.867" r="3.867"/>
<path fill="#B70050" d="M428.146,21.982l-3.065-9.527c-0.021-0.064-0.052-0.121-0.08-0.18c-1.22-3.089-3.938-3.817-4.897-3.817
	c-0.87,0-0.672,0-1.577,0c-0.204,0-0.37,0-0.513,0c-0.904,0-0.706,0-1.575,0c-0.96,0-3.678,0.728-4.897,3.817
	c-0.029,0.059-0.06,0.116-0.08,0.18l-3.066,9.527c-0.263,0.797,0.17,1.66,0.969,1.922c0.798,0.263,1.658-0.17,1.92-0.968
	l2.954-9.179h0.692L409.888,29.5H414v12.476c0,0.993,0.806,1.798,1.799,1.798s1.8-0.806,1.8-1.798V29.5h1.343v12.476
	c0,0.993,0.806,1.798,1.8,1.798c0.992,0,1.798-0.806,1.798-1.798V29.5h4.113l-5.041-15.743h0.69l2.955,9.179
	c0.263,0.797,1.123,1.231,1.92,0.968C427.976,23.642,428.409,22.78,428.146,21.982z"/>
<circle fill="#B70050" cx="445.461" cy="3.867" r="3.867"/>
<path fill="#B70050" d="M455.312,21.982l-3.066-9.527c-0.021-0.064-0.052-0.121-0.08-0.18c-1.22-3.089-3.938-3.817-4.897-3.817
	c-0.869,0-0.672,0-1.577,0c-0.204,0-0.37,0-0.513,0c-0.904,0-0.705,0-1.575,0c-0.96,0-3.678,0.728-4.897,3.817
	c-0.029,0.059-0.06,0.116-0.08,0.18l-3.066,9.527c-0.263,0.797,0.17,1.66,0.969,1.922c0.798,0.263,1.658-0.17,1.921-0.968
	l2.953-9.179h0.692L437.054,29.5h4.113v12.476c0,0.993,0.806,1.798,1.798,1.798c0.994,0,1.8-0.806,1.8-1.798V29.5h1.343v12.476
	c0,0.993,0.806,1.798,1.8,1.798c0.992,0,1.799-0.806,1.799-1.798V29.5h4.112l-5.041-15.743h0.69l2.955,9.179
	c0.263,0.797,1.123,1.231,1.921,0.968C455.142,23.642,455.575,22.78,455.312,21.982z"/>
<circle fill="#B70050" cx="472.627" cy="3.867" r="3.867"/>
<path fill="#B70050" d="M482.479,21.982l-3.066-9.527c-0.021-0.064-0.052-0.121-0.08-0.18c-1.22-3.089-3.938-3.817-4.897-3.817
	c-0.869,0-0.672,0-1.577,0c-0.204,0-0.37,0-0.513,0c-0.904,0-0.705,0-1.575,0c-0.96,0-3.678,0.728-4.897,3.817
	c-0.028,0.059-0.06,0.116-0.08,0.18l-3.065,9.527c-0.264,0.797,0.169,1.66,0.969,1.922c0.797,0.263,1.657-0.17,1.92-0.968
	l2.953-9.179h0.692L464.22,29.5h4.113v12.476c0,0.993,0.806,1.798,1.798,1.798c0.994,0,1.8-0.806,1.8-1.798V29.5h1.344v12.476
	c0,0.993,0.805,1.798,1.799,1.798c0.993,0,1.799-0.806,1.799-1.798V29.5h4.112l-5.041-15.743h0.691l2.955,9.179
	c0.262,0.797,1.122,1.231,1.92,0.968C482.308,23.642,482.741,22.78,482.479,21.982z"/>
<circle fill="#B70050" cx="499.793" cy="3.867" r="3.867"/>
<path fill="#B70050" d="M509.645,21.982l-3.066-9.527c-0.021-0.064-0.052-0.121-0.08-0.18c-1.219-3.089-3.938-3.817-4.897-3.817
	c-0.869,0-0.672,0-1.576,0c-0.205,0-0.371,0-0.514,0c-0.904,0-0.705,0-1.575,0c-0.96,0-3.678,0.728-4.897,3.817
	c-0.028,0.059-0.06,0.116-0.08,0.18l-3.065,9.527c-0.264,0.797,0.169,1.66,0.969,1.922c0.797,0.263,1.657-0.17,1.92-0.968
	l2.953-9.179h0.692l-5.04,15.743h4.112v12.476c0,0.993,0.806,1.798,1.798,1.798c0.994,0,1.8-0.806,1.8-1.798V29.5h1.344v12.476
	c0,0.993,0.805,1.798,1.799,1.798c0.993,0,1.799-0.806,1.799-1.798V29.5h4.112l-5.041-15.743h0.691l2.955,9.179
	c0.262,0.797,1.122,1.231,1.92,0.968C509.474,23.642,509.907,22.78,509.645,21.982z"/>
<circle fill="#B70050" cx="526.959" cy="3.867" r="3.867"/>
<path fill="#B70050" d="M536.811,21.982l-3.065-9.527c-0.021-0.064-0.053-0.121-0.081-0.18c-1.219-3.089-3.938-3.817-4.897-3.817
	c-0.869,0-0.672,0-1.576,0c-0.205,0-0.371,0-0.514,0c-0.903,0-0.705,0-1.574,0c-0.961,0-3.679,0.728-4.898,3.817
	c-0.028,0.059-0.059,0.116-0.08,0.18l-3.065,9.527c-0.263,0.797,0.17,1.66,0.969,1.922c0.798,0.263,1.658-0.17,1.92-0.968
	l2.953-9.179h0.692l-5.04,15.743h4.112v12.476c0,0.993,0.806,1.798,1.799,1.798s1.799-0.806,1.799-1.798V29.5h1.344v12.476
	c0,0.993,0.805,1.798,1.799,1.798c0.993,0,1.799-0.806,1.799-1.798V29.5h4.112l-5.04-15.743h0.69l2.955,9.179
	c0.262,0.797,1.122,1.231,1.92,0.968C536.64,23.642,537.073,22.78,536.811,21.982z"/>
<circle fill="#B70050" cx="9.978" cy="3.867" r="3.867"/>
<path fill="#B70050" d="M19.829,21.982l-3.066-9.527c-0.021-0.064-0.052-0.121-0.08-0.18c-1.22-3.089-3.938-3.817-4.897-3.817
	c-0.869,0-0.672,0-1.577,0c-0.204,0-0.37,0-0.513,0c-0.904,0-0.705,0-1.575,0c-0.96,0-3.678,0.728-4.897,3.817
	c-0.028,0.059-0.06,0.116-0.08,0.18l-3.065,9.527c-0.264,0.797,0.169,1.66,0.969,1.922c0.797,0.263,1.657-0.17,1.92-0.968
	l2.953-9.179h0.692L1.571,29.5h4.112v12.476c0,0.993,0.806,1.798,1.798,1.798c0.994,0,1.8-0.806,1.8-1.798V29.5h1.344v12.476
	c0,0.993,0.805,1.798,1.799,1.798c0.993,0,1.799-0.806,1.799-1.798V29.5h4.112l-5.041-15.743h0.691l2.955,9.179
	c0.262,0.797,1.122,1.231,1.92,0.968C19.658,23.642,20.092,22.78,19.829,21.982z"/>
<circle fill="#B70050" cx="37.153" cy="3.867" r="3.867"/>
<path fill="#B70050" d="M47.004,21.982l-3.065-9.527c-0.021-0.064-0.053-0.121-0.08-0.18c-1.22-3.089-3.938-3.817-4.897-3.817
	c-0.87,0-0.672,0-1.577,0c-0.204,0-0.371,0-0.513,0c-0.904,0-0.706,0-1.575,0c-0.961,0-3.679,0.728-4.897,3.817
	c-0.029,0.059-0.06,0.116-0.08,0.18l-3.075,9.527c-0.264,0.797,0.169,1.66,0.972,1.922c0.803,0.263,1.664-0.17,1.926-0.968
	l2.954-9.179h0.692L28.743,29.5h4.115v12.476c0,0.993,0.806,1.798,1.799,1.798s1.799-0.806,1.799-1.798V29.5H37.8v12.476
	c0,0.993,0.805,1.798,1.8,1.798c0.992,0,1.798-0.806,1.798-1.798V29.5h4.112l-5.04-15.743h0.69l2.955,9.179
	c0.263,0.797,1.123,1.231,1.92,0.968C46.834,23.642,47.268,22.78,47.004,21.982z"/>
<circle fill="#B70050" cx="64.319" cy="3.867" r="3.867"/>
<path fill="#B70050" d="M74.17,21.982l-3.065-9.527c-0.021-0.064-0.052-0.121-0.08-0.18c-1.22-3.089-3.938-3.817-4.897-3.817
	c-0.87,0-0.672,0-1.577,0c-0.204,0-0.37,0-0.513,0c-0.904,0-0.706,0-1.575,0c-0.961,0-3.678,0.728-4.897,3.817
	c-0.029,0.059-0.06,0.116-0.08,0.18l-3.066,9.527c-0.263,0.797,0.17,1.66,0.969,1.922c0.798,0.263,1.658-0.17,1.92-0.968
	l2.954-9.179h0.692L55.912,29.5h4.112v12.476c0,0.993,0.806,1.798,1.799,1.798s1.799-0.806,1.799-1.798V29.5h1.344v12.476
	c0,0.993,0.805,1.798,1.8,1.798c0.992,0,1.798-0.806,1.798-1.798V29.5h4.112l-5.04-15.743h0.69l2.955,9.179
	c0.263,0.797,1.123,1.231,1.92,0.968C74,23.642,74.434,22.78,74.17,21.982z"/>
<circle fill="#B70050" cx="91.485" cy="3.867" r="3.867"/>
<path fill="#B70050" d="M101.337,21.982l-3.066-9.527c-0.021-0.064-0.052-0.121-0.08-0.18c-1.22-3.089-3.938-3.817-4.897-3.817
	c-0.869,0-0.672,0-1.577,0c-0.204,0-0.37,0-0.513,0c-0.904,0-0.706,0-1.575,0c-0.96,0-3.678,0.728-4.897,3.817
	c-0.029,0.059-0.06,0.116-0.08,0.18l-3.066,9.527c-0.263,0.797,0.17,1.66,0.969,1.922c0.798,0.263,1.658-0.17,1.921-0.968
	l2.953-9.179h0.692L83.078,29.5h4.112v12.476c0,0.993,0.807,1.798,1.799,1.798c0.993,0,1.8-0.806,1.8-1.798V29.5h1.343v12.476
	c0,0.993,0.806,1.798,1.8,1.798c0.992,0,1.798-0.806,1.798-1.798V29.5h4.113l-5.041-15.743h0.69l2.955,9.179
	c0.263,0.797,1.123,1.231,1.921,0.968C101.166,23.642,101.6,22.78,101.337,21.982z"/>
<circle fill="#B70050" cx="118.556" cy="53.001" r="3.867"/>
<path fill="#B70050" d="M128.406,71.116l-3.065-9.527c-0.021-0.065-0.052-0.121-0.08-0.181c-1.22-3.089-3.938-3.817-4.897-3.817
	c-0.87,0-0.672,0-1.577,0c-0.204,0-0.37,0-0.513,0c-0.904,0-0.706,0-1.575,0c-0.961,0-3.678,0.728-4.897,3.817
	c-0.029,0.06-0.06,0.116-0.08,0.181l-3.066,9.527c-0.263,0.797,0.17,1.659,0.969,1.922c0.798,0.263,1.658-0.17,1.92-0.968
	l2.954-9.18h0.692l-5.041,15.743h4.112V91.11c0,0.993,0.806,1.798,1.799,1.798s1.799-0.806,1.799-1.798V78.634h1.344V91.11
	c0,0.993,0.805,1.798,1.8,1.798c0.992,0,1.798-0.806,1.798-1.798V78.634h4.112l-5.04-15.743h0.69l2.955,9.18
	c0.263,0.797,1.123,1.231,1.92,0.968C128.236,72.775,128.67,71.914,128.406,71.116z"/>
<circle fill="#B70050" cx="145.722" cy="53.001" r="3.867"/>
<path fill="#B70050" d="M155.573,71.116l-3.066-9.527c-0.021-0.065-0.052-0.121-0.08-0.181c-1.22-3.089-3.938-3.817-4.897-3.817
	c-0.869,0-0.672,0-1.577,0c-0.204,0-0.37,0-0.513,0c-0.904,0-0.706,0-1.575,0c-0.96,0-3.678,0.728-4.897,3.817
	c-0.029,0.06-0.06,0.116-0.08,0.181l-3.066,9.527c-0.263,0.797,0.17,1.659,0.969,1.922c0.798,0.263,1.658-0.17,1.921-0.968
	l2.953-9.18h0.692l-5.041,15.743h4.112V91.11c0,0.993,0.807,1.798,1.799,1.798c0.994,0,1.8-0.806,1.8-1.798V78.634h1.343V91.11
	c0,0.993,0.806,1.798,1.8,1.798c0.992,0,1.799-0.806,1.799-1.798V78.634h4.112l-5.041-15.743h0.69l2.955,9.18
	c0.263,0.797,1.123,1.231,1.921,0.968S155.836,71.914,155.573,71.116z"/>
<circle fill="#B70050" cx="172.888" cy="53.001" r="3.867"/>
<path fill="#B70050" d="M182.739,71.116l-3.066-9.527c-0.021-0.065-0.052-0.121-0.08-0.181c-1.22-3.089-3.938-3.817-4.897-3.817
	c-0.869,0-0.672,0-1.577,0c-0.204,0-0.37,0-0.513,0c-0.904,0-0.705,0-1.575,0c-0.96,0-3.678,0.728-4.897,3.817
	c-0.028,0.06-0.06,0.116-0.08,0.181l-3.065,9.527c-0.264,0.797,0.169,1.659,0.969,1.922c0.797,0.263,1.657-0.17,1.92-0.968
	l2.953-9.18h0.692l-5.041,15.743h4.113V91.11c0,0.993,0.806,1.798,1.798,1.798c0.994,0,1.8-0.806,1.8-1.798V78.634h1.343V91.11
	c0,0.993,0.806,1.798,1.8,1.798c0.993,0,1.799-0.806,1.799-1.798V78.634h4.112l-5.041-15.743h0.691l2.955,9.18
	c0.262,0.797,1.122,1.231,1.92,0.968S183.002,71.914,182.739,71.116z"/>
<circle fill="#B70050" cx="200.054" cy="53.001" r="3.867"/>
<path fill="#B70050" d="M209.905,71.116l-3.066-9.527c-0.021-0.065-0.052-0.121-0.08-0.181c-1.219-3.089-3.938-3.817-4.897-3.817
	c-0.869,0-0.672,0-1.577,0c-0.204,0-0.37,0-0.513,0c-0.904,0-0.705,0-1.575,0c-0.96,0-3.678,0.728-4.897,3.817
	c-0.028,0.06-0.06,0.116-0.08,0.181l-3.065,9.527c-0.264,0.797,0.169,1.659,0.969,1.922c0.797,0.263,1.657-0.17,1.92-0.968
	l2.953-9.18h0.692l-5.04,15.743h4.112V91.11c0,0.993,0.806,1.798,1.798,1.798c0.994,0,1.8-0.806,1.8-1.798V78.634h1.344V91.11
	c0,0.993,0.805,1.798,1.799,1.798c0.993,0,1.799-0.806,1.799-1.798V78.634h4.112l-5.041-15.743h0.691l2.955,9.18
	c0.262,0.797,1.122,1.231,1.92,0.968S210.168,71.914,209.905,71.116z"/>
<circle fill="#B70050" cx="227.22" cy="53.001" r="3.867"/>
<path fill="#B70050" d="M237.071,71.116l-3.066-9.527c-0.021-0.065-0.052-0.121-0.08-0.181c-1.219-3.089-3.938-3.817-4.897-3.817
	c-0.869,0-0.672,0-1.576,0c-0.205,0-0.371,0-0.514,0c-0.903,0-0.705,0-1.575,0c-0.96,0-3.678,0.728-4.896,3.817
	c-0.029,0.06-0.061,0.116-0.081,0.181l-3.065,9.527c-0.264,0.797,0.17,1.659,0.969,1.922c0.797,0.263,1.658-0.17,1.92-0.968
	l2.953-9.18h0.692l-5.04,15.743h4.112V91.11c0,0.993,0.806,1.798,1.798,1.798c0.994,0,1.8-0.806,1.8-1.798V78.634h1.344V91.11
	c0,0.993,0.805,1.798,1.799,1.798c0.993,0,1.799-0.806,1.799-1.798V78.634h4.112l-5.041-15.743h0.691l2.955,9.18
	c0.262,0.797,1.122,1.231,1.92,0.968S237.334,71.914,237.071,71.116z"/>
<circle fill="#B70050" cx="254.386" cy="53.001" r="3.867"/>
<path fill="#B70050" d="M264.237,71.116l-3.065-9.527c-0.021-0.065-0.053-0.121-0.081-0.181c-1.219-3.089-3.938-3.817-4.897-3.817
	c-0.869,0-0.671,0-1.576,0c-0.204,0-0.371,0-0.513,0c-0.904,0-0.706,0-1.575,0c-0.961,0-3.679,0.728-4.897,3.817
	c-0.029,0.06-0.06,0.116-0.081,0.181l-3.065,9.527c-0.263,0.797,0.17,1.659,0.969,1.922c0.798,0.263,1.658-0.17,1.92-0.968
	l2.953-9.18h0.693l-5.041,15.743h4.112V91.11c0,0.993,0.806,1.798,1.799,1.798s1.799-0.806,1.799-1.798V78.634h1.344V91.11
	c0,0.993,0.805,1.798,1.799,1.798c0.993,0,1.799-0.806,1.799-1.798V78.634h4.112l-5.04-15.743h0.69l2.955,9.18
	c0.262,0.797,1.123,1.231,1.92,0.968C264.067,72.775,264.501,71.914,264.237,71.116z"/>
<circle fill="#B70050" cx="281.553" cy="53.001" r="3.867"/>
<path fill="#B70050" d="M291.403,71.116l-3.065-9.527c-0.021-0.065-0.053-0.121-0.08-0.181c-1.22-3.089-3.938-3.817-4.897-3.817
	c-0.87,0-0.672,0-1.577,0c-0.204,0-0.371,0-0.513,0c-0.904,0-0.706,0-1.575,0c-0.961,0-3.679,0.728-4.897,3.817
	c-0.029,0.06-0.06,0.116-0.08,0.181l-3.066,9.527c-0.263,0.797,0.17,1.659,0.969,1.922c0.798,0.263,1.658-0.17,1.92-0.968
	l2.953-9.18h0.693l-5.041,15.743h4.112V91.11c0,0.993,0.806,1.798,1.799,1.798s1.799-0.806,1.799-1.798V78.634h1.344V91.11
	c0,0.993,0.805,1.798,1.8,1.798c0.992,0,1.798-0.806,1.798-1.798V78.634h4.112l-5.04-15.743h0.69l2.955,9.18
	c0.263,0.797,1.123,1.231,1.92,0.968C291.233,72.775,291.667,71.914,291.403,71.116z"/>
<circle fill="#B70050" cx="308.719" cy="53.001" r="3.867"/>
<path fill="#B70050" d="M318.569,71.116l-3.065-9.527c-0.021-0.065-0.052-0.121-0.08-0.181c-1.22-3.089-3.938-3.817-4.897-3.817
	c-0.87,0-0.672,0-1.577,0c-0.204,0-0.37,0-0.513,0c-0.904,0-0.706,0-1.575,0c-0.961,0-3.678,0.728-4.897,3.817
	c-0.029,0.06-0.06,0.116-0.08,0.181l-3.066,9.527c-0.263,0.797,0.17,1.659,0.969,1.922c0.798,0.263,1.658-0.17,1.92-0.968
	l2.954-9.18h0.692l-5.041,15.743h4.112V91.11c0,0.993,0.806,1.798,1.799,1.798s1.799-0.806,1.799-1.798V78.634h1.344V91.11
	c0,0.993,0.805,1.798,1.8,1.798c0.992,0,1.798-0.806,1.798-1.798V78.634h4.112l-5.04-15.743h0.69l2.955,9.18
	c0.263,0.797,1.123,1.231,1.92,0.968C318.399,72.775,318.833,71.914,318.569,71.116z"/>
<circle fill="#B70050" cx="336.796" cy="53.001" r="3.867"/>
<path fill="#B70050" d="M346.647,71.116l-3.065-9.527c-0.021-0.065-0.053-0.121-0.081-0.181c-1.219-3.089-3.938-3.817-4.897-3.817
	c-0.869,0-0.671,0-1.576,0c-0.204,0-0.371,0-0.513,0c-0.904,0-0.706,0-1.575,0c-0.961,0-3.679,0.728-4.897,3.817
	c-0.029,0.06-0.06,0.116-0.081,0.181l-3.065,9.527c-0.264,0.797,0.17,1.659,0.969,1.922c0.798,0.263,1.658-0.17,1.92-0.968
	l2.953-9.18h0.692l-5.04,15.743h4.112V91.11c0,0.993,0.806,1.798,1.799,1.798s1.799-0.806,1.799-1.798V78.634h1.344V91.11
	c0,0.993,0.805,1.798,1.799,1.798c0.993,0,1.799-0.806,1.799-1.798V78.634h4.112l-5.04-15.743h0.69l2.955,9.18
	c0.262,0.797,1.122,1.231,1.92,0.968C346.478,72.775,346.91,71.914,346.647,71.116z"/>
<circle fill="#B70050" cx="363.963" cy="53.001" r="3.867"/>
<path fill="#B70050" d="M373.813,71.116l-3.065-9.527c-0.021-0.065-0.053-0.121-0.08-0.181c-1.22-3.089-3.938-3.817-4.897-3.817
	c-0.87,0-0.672,0-1.577,0c-0.204,0-0.371,0-0.513,0c-0.904,0-0.706,0-1.575,0c-0.961,0-3.679,0.728-4.897,3.817
	c-0.029,0.06-0.06,0.116-0.08,0.181l-3.066,9.527c-0.263,0.797,0.17,1.659,0.969,1.922c0.798,0.263,1.658-0.17,1.92-0.968
	l2.953-9.18h0.693l-5.041,15.743h4.112V91.11c0,0.993,0.806,1.798,1.799,1.798s1.799-0.806,1.799-1.798V78.634h1.344V91.11
	c0,0.993,0.805,1.798,1.8,1.798c0.992,0,1.798-0.806,1.798-1.798V78.634h4.112l-5.04-15.743h0.69l2.955,9.18
	c0.263,0.797,1.123,1.231,1.92,0.968C373.644,72.775,374.077,71.914,373.813,71.116z"/>
<circle fill="#B70050" cx="391.129" cy="53.001" r="3.867"/>
<path fill="#B70050" d="M400.979,71.116l-3.065-9.527c-0.021-0.065-0.052-0.121-0.08-0.181c-1.22-3.089-3.938-3.817-4.897-3.817
	c-0.87,0-0.672,0-1.577,0c-0.204,0-0.37,0-0.513,0c-0.904,0-0.706,0-1.575,0c-0.961,0-3.679,0.728-4.897,3.817
	c-0.029,0.06-0.06,0.116-0.08,0.181l-3.066,9.527c-0.263,0.797,0.17,1.659,0.969,1.922c0.798,0.263,1.658-0.17,1.92-0.968
	l2.954-9.18h0.692l-5.041,15.743h4.112V91.11c0,0.993,0.806,1.798,1.799,1.798s1.799-0.806,1.799-1.798V78.634h1.344V91.11
	c0,0.993,0.805,1.798,1.8,1.798c0.992,0,1.798-0.806,1.798-1.798V78.634h4.112l-5.04-15.743h0.69l2.955,9.18
	c0.263,0.797,1.123,1.231,1.92,0.968C400.81,72.775,401.243,71.914,400.979,71.116z"/>
<circle fill="#B70050" cx="418.295" cy="53.001" r="3.867"/>
<path fill="#B70050" d="M428.146,71.116l-3.065-9.527c-0.021-0.065-0.052-0.121-0.08-0.181c-1.22-3.089-3.938-3.817-4.897-3.817
	c-0.87,0-0.672,0-1.577,0c-0.204,0-0.37,0-0.513,0c-0.904,0-0.706,0-1.575,0c-0.96,0-3.678,0.728-4.897,3.817
	c-0.029,0.06-0.06,0.116-0.08,0.181l-3.066,9.527c-0.263,0.797,0.17,1.659,0.969,1.922c0.798,0.263,1.658-0.17,1.92-0.968
	l2.954-9.18h0.692l-5.041,15.743H414V91.11c0,0.993,0.806,1.798,1.799,1.798s1.8-0.806,1.8-1.798V78.634h1.343V91.11
	c0,0.993,0.806,1.798,1.8,1.798c0.992,0,1.798-0.806,1.798-1.798V78.634h4.113l-5.041-15.743h0.69l2.955,9.18
	c0.263,0.797,1.123,1.231,1.92,0.968C427.976,72.775,428.409,71.914,428.146,71.116z"/>
<circle fill="#B70050" cx="445.461" cy="53.001" r="3.867"/>
<path fill="#B70050" d="M455.312,71.116l-3.066-9.527c-0.021-0.065-0.052-0.121-0.08-0.181c-1.22-3.089-3.938-3.817-4.897-3.817
	c-0.869,0-0.672,0-1.577,0c-0.204,0-0.37,0-0.513,0c-0.904,0-0.705,0-1.575,0c-0.96,0-3.678,0.728-4.897,3.817
	c-0.029,0.06-0.06,0.116-0.08,0.181l-3.066,9.527c-0.263,0.797,0.17,1.659,0.969,1.922c0.798,0.263,1.658-0.17,1.921-0.968
	l2.953-9.18h0.692l-5.041,15.743h4.113V91.11c0,0.993,0.806,1.798,1.798,1.798c0.994,0,1.8-0.806,1.8-1.798V78.634h1.343V91.11
	c0,0.993,0.806,1.798,1.8,1.798c0.992,0,1.799-0.806,1.799-1.798V78.634h4.112l-5.041-15.743h0.69l2.955,9.18
	c0.263,0.797,1.123,1.231,1.921,0.968S455.575,71.914,455.312,71.116z"/>
<circle fill="#B70050" cx="472.627" cy="53.001" r="3.867"/>
<path fill="#B70050" d="M482.479,71.116l-3.066-9.527c-0.021-0.065-0.052-0.121-0.08-0.181c-1.22-3.089-3.938-3.817-4.897-3.817
	c-0.869,0-0.672,0-1.577,0c-0.204,0-0.37,0-0.513,0c-0.904,0-0.705,0-1.575,0c-0.96,0-3.678,0.728-4.897,3.817
	c-0.028,0.06-0.06,0.116-0.08,0.181l-3.065,9.527c-0.264,0.797,0.169,1.659,0.969,1.922c0.797,0.263,1.657-0.17,1.92-0.968
	l2.953-9.18h0.692l-5.041,15.743h4.113V91.11c0,0.993,0.806,1.798,1.798,1.798c0.994,0,1.8-0.806,1.8-1.798V78.634h1.344V91.11
	c0,0.993,0.805,1.798,1.799,1.798c0.993,0,1.799-0.806,1.799-1.798V78.634h4.112l-5.041-15.743h0.691l2.955,9.18
	c0.262,0.797,1.122,1.231,1.92,0.968S482.741,71.914,482.479,71.116z"/>
<circle fill="#B70050" cx="499.793" cy="53.001" r="3.867"/>
<path fill="#B70050" d="M509.645,71.116l-3.066-9.527c-0.021-0.065-0.052-0.121-0.08-0.181c-1.219-3.089-3.938-3.817-4.897-3.817
	c-0.869,0-0.672,0-1.576,0c-0.205,0-0.371,0-0.514,0c-0.904,0-0.705,0-1.575,0c-0.96,0-3.678,0.728-4.897,3.817
	c-0.028,0.06-0.06,0.116-0.08,0.181l-3.065,9.527c-0.264,0.797,0.169,1.659,0.969,1.922c0.797,0.263,1.657-0.17,1.92-0.968
	l2.953-9.18h0.692l-5.04,15.743h4.112V91.11c0,0.993,0.806,1.798,1.798,1.798c0.994,0,1.8-0.806,1.8-1.798V78.634h1.344V91.11
	c0,0.993,0.805,1.798,1.799,1.798c0.993,0,1.799-0.806,1.799-1.798V78.634h4.112l-5.041-15.743h0.691l2.955,9.18
	c0.262,0.797,1.122,1.231,1.92,0.968S509.907,71.914,509.645,71.116z"/>
<circle fill="#B70050" cx="526.959" cy="53.001" r="3.867"/>
<path fill="#B70050" d="M536.811,71.116l-3.065-9.527c-0.021-0.065-0.053-0.121-0.081-0.181c-1.219-3.089-3.938-3.817-4.897-3.817
	c-0.869,0-0.672,0-1.576,0c-0.205,0-0.371,0-0.514,0c-0.903,0-0.705,0-1.574,0c-0.961,0-3.679,0.728-4.898,3.817
	c-0.028,0.06-0.059,0.116-0.08,0.181l-3.065,9.527c-0.263,0.797,0.17,1.659,0.969,1.922c0.798,0.263,1.658-0.17,1.92-0.968
	l2.953-9.18h0.692l-5.04,15.743h4.112V91.11c0,0.993,0.806,1.798,1.799,1.798s1.799-0.806,1.799-1.798V78.634h1.344V91.11
	c0,0.993,0.805,1.798,1.799,1.798c0.993,0,1.799-0.806,1.799-1.798V78.634h4.112l-5.04-15.743h0.69l2.955,9.18
	c0.262,0.797,1.122,1.231,1.92,0.968S537.073,71.914,536.811,71.116z"/>
<circle fill="#B70050" cx="9.978" cy="53.001" r="3.867"/>
<path fill="#B70050" d="M19.829,71.116l-3.066-9.527c-0.021-0.065-0.052-0.121-0.08-0.181c-1.22-3.089-3.938-3.817-4.897-3.817
	c-0.869,0-0.672,0-1.577,0c-0.204,0-0.37,0-0.513,0c-0.904,0-0.705,0-1.575,0c-0.96,0-3.678,0.728-4.897,3.817
	c-0.028,0.06-0.06,0.116-0.08,0.181l-3.065,9.527c-0.264,0.797,0.169,1.659,0.969,1.922c0.797,0.263,1.657-0.17,1.92-0.968
	l2.953-9.18h0.692l-5.04,15.743h4.112V91.11c0,0.993,0.806,1.798,1.798,1.798c0.994,0,1.8-0.806,1.8-1.798V78.634h1.344V91.11
	c0,0.993,0.805,1.798,1.799,1.798c0.993,0,1.799-0.806,1.799-1.798V78.634h4.112l-5.041-15.743h0.691l2.955,9.18
	c0.262,0.797,1.122,1.231,1.92,0.968S20.092,71.914,19.829,71.116z"/>
<circle fill="#B70050" cx="37.153" cy="53.001" r="3.867"/>
<path fill="#B70050" d="M47.004,71.116l-3.065-9.527c-0.021-0.065-0.053-0.121-0.08-0.181c-1.22-3.089-3.938-3.817-4.897-3.817
	c-0.87,0-0.672,0-1.577,0c-0.204,0-0.371,0-0.513,0c-0.904,0-0.706,0-1.575,0c-0.961,0-3.679,0.728-4.897,3.817
	c-0.029,0.06-0.06,0.116-0.08,0.181l-3.075,9.527c-0.264,0.797,0.169,1.659,0.972,1.922s1.664-0.17,1.926-0.968l2.954-9.18h0.692
	l-5.044,15.743h4.115V91.11c0,0.993,0.806,1.798,1.799,1.798s1.799-0.806,1.799-1.798V78.634H37.8V91.11
	c0,0.993,0.805,1.798,1.8,1.798c0.992,0,1.798-0.806,1.798-1.798V78.634h4.112l-5.04-15.743h0.69l2.955,9.18
	c0.263,0.797,1.123,1.231,1.92,0.968C46.834,72.775,47.268,71.914,47.004,71.116z"/>
<circle fill="#B70050" cx="64.319" cy="53.001" r="3.867"/>
<path fill="#B70050" d="M74.17,71.116l-3.065-9.527c-0.021-0.065-0.052-0.121-0.08-0.181c-1.22-3.089-3.938-3.817-4.897-3.817
	c-0.87,0-0.672,0-1.577,0c-0.204,0-0.37,0-0.513,0c-0.904,0-0.706,0-1.575,0c-0.961,0-3.678,0.728-4.897,3.817
	c-0.029,0.06-0.06,0.116-0.08,0.181l-3.066,9.527c-0.263,0.797,0.17,1.659,0.969,1.922c0.798,0.263,1.658-0.17,1.92-0.968
	l2.954-9.18h0.692l-5.041,15.743h4.112V91.11c0,0.993,0.806,1.798,1.799,1.798s1.799-0.806,1.799-1.798V78.634h1.344V91.11
	c0,0.993,0.805,1.798,1.8,1.798c0.992,0,1.798-0.806,1.798-1.798V78.634h4.112l-5.04-15.743h0.69l2.955,9.18
	c0.263,0.797,1.123,1.231,1.92,0.968C74,72.775,74.434,71.914,74.17,71.116z"/>
<circle fill="#B70050" cx="91.485" cy="53.001" r="3.867"/>
<path fill="#B70050" d="M101.337,71.116l-3.066-9.527c-0.021-0.065-0.052-0.121-0.08-0.181c-1.22-3.089-3.938-3.817-4.897-3.817
	c-0.869,0-0.672,0-1.577,0c-0.204,0-0.37,0-0.513,0c-0.904,0-0.706,0-1.575,0c-0.96,0-3.678,0.728-4.897,3.817
	c-0.029,0.06-0.06,0.116-0.08,0.181l-3.066,9.527c-0.263,0.797,0.17,1.659,0.969,1.922c0.798,0.263,1.658-0.17,1.921-0.968
	l2.953-9.18h0.692l-5.041,15.743h4.112V91.11c0,0.993,0.807,1.798,1.799,1.798c0.993,0,1.8-0.806,1.8-1.798V78.634h1.343V91.11
	c0,0.993,0.806,1.798,1.8,1.798c0.992,0,1.798-0.806,1.798-1.798V78.634h4.113l-5.041-15.743h0.69l2.955,9.18
	c0.263,0.797,1.123,1.231,1.921,0.968S101.6,71.914,101.337,71.116z"/>
<circle fill="#B70050" cx="118.556" cy="103.961" r="3.868"/>
<path fill="#B70050" d="M128.406,122.076l-3.065-9.526c-0.021-0.064-0.052-0.121-0.08-0.181c-1.22-3.089-3.938-3.816-4.897-3.816
	c-0.87,0-0.672,0-1.577,0c-0.204,0-0.37,0-0.513,0c-0.904,0-0.706,0-1.575,0c-0.961,0-3.678,0.728-4.897,3.816
	c-0.029,0.06-0.06,0.116-0.08,0.181l-3.066,9.526c-0.263,0.798,0.17,1.66,0.969,1.923c0.798,0.263,1.658-0.171,1.92-0.968
	l2.954-9.18h0.692l-5.041,15.743h4.112v12.476c0,0.992,0.806,1.798,1.799,1.798s1.799-0.806,1.799-1.798v-12.476h1.344v12.476
	c0,0.992,0.805,1.798,1.8,1.798c0.992,0,1.798-0.806,1.798-1.798v-12.476h4.112l-5.04-15.743h0.69l2.955,9.18
	c0.263,0.797,1.123,1.23,1.92,0.968C128.236,123.736,128.67,122.874,128.406,122.076z"/>
<circle fill="#B70050" cx="145.722" cy="103.961" r="3.868"/>
<path fill="#B70050" d="M155.573,122.076l-3.066-9.526c-0.021-0.064-0.052-0.121-0.08-0.181c-1.22-3.089-3.938-3.816-4.897-3.816
	c-0.869,0-0.672,0-1.577,0c-0.204,0-0.37,0-0.513,0c-0.904,0-0.706,0-1.575,0c-0.96,0-3.678,0.728-4.897,3.816
	c-0.029,0.06-0.06,0.116-0.08,0.181l-3.066,9.526c-0.263,0.798,0.17,1.66,0.969,1.923c0.798,0.263,1.658-0.171,1.921-0.968
	l2.953-9.18h0.692l-5.041,15.743h4.112v12.476c0,0.992,0.807,1.798,1.799,1.798c0.994,0,1.8-0.806,1.8-1.798v-12.476h1.343v12.476
	c0,0.992,0.806,1.798,1.8,1.798c0.992,0,1.799-0.806,1.799-1.798v-12.476h4.112l-5.041-15.743h0.69l2.955,9.18
	c0.263,0.797,1.123,1.23,1.921,0.968S155.836,122.874,155.573,122.076z"/>
<circle fill="#B70050" cx="172.888" cy="103.961" r="3.868"/>
<path fill="#B70050" d="M182.739,122.076l-3.066-9.526c-0.021-0.064-0.052-0.121-0.08-0.181c-1.22-3.089-3.938-3.816-4.897-3.816
	c-0.869,0-0.672,0-1.577,0c-0.204,0-0.37,0-0.513,0c-0.904,0-0.705,0-1.575,0c-0.96,0-3.678,0.728-4.897,3.816
	c-0.028,0.06-0.06,0.116-0.08,0.181l-3.065,9.526c-0.264,0.798,0.169,1.66,0.969,1.923c0.797,0.263,1.657-0.171,1.92-0.968
	l2.953-9.18h0.692l-5.041,15.743h4.113v12.476c0,0.992,0.806,1.798,1.798,1.798c0.994,0,1.8-0.806,1.8-1.798v-12.476h1.343v12.476
	c0,0.992,0.806,1.798,1.8,1.798c0.993,0,1.799-0.806,1.799-1.798v-12.476h4.112l-5.041-15.743h0.691l2.955,9.18
	c0.262,0.797,1.122,1.23,1.92,0.968S183.002,122.874,182.739,122.076z"/>
<circle fill="#B70050" cx="200.054" cy="103.961" r="3.868"/>
<path fill="#B70050" d="M209.905,122.076l-3.066-9.526c-0.021-0.064-0.052-0.121-0.08-0.181c-1.219-3.089-3.938-3.816-4.897-3.816
	c-0.869,0-0.672,0-1.577,0c-0.204,0-0.37,0-0.513,0c-0.904,0-0.705,0-1.575,0c-0.96,0-3.678,0.728-4.897,3.816
	c-0.028,0.06-0.06,0.116-0.08,0.181l-3.065,9.526c-0.264,0.798,0.169,1.66,0.969,1.923c0.797,0.263,1.657-0.171,1.92-0.968
	l2.953-9.18h0.692l-5.04,15.743h4.112v12.476c0,0.992,0.806,1.798,1.798,1.798c0.994,0,1.8-0.806,1.8-1.798v-12.476h1.344v12.476
	c0,0.992,0.805,1.798,1.799,1.798c0.993,0,1.799-0.806,1.799-1.798v-12.476h4.112l-5.041-15.743h0.691l2.955,9.18
	c0.262,0.797,1.122,1.23,1.92,0.968S210.168,122.874,209.905,122.076z"/>
<circle fill="#B70050" cx="227.22" cy="103.961" r="3.868"/>
<path fill="#B70050" d="M237.071,122.076l-3.066-9.526c-0.021-0.064-0.052-0.121-0.08-0.181c-1.219-3.089-3.938-3.816-4.897-3.816
	c-0.869,0-0.672,0-1.576,0c-0.205,0-0.371,0-0.514,0c-0.903,0-0.705,0-1.575,0c-0.96,0-3.678,0.728-4.896,3.816
	c-0.029,0.06-0.061,0.116-0.081,0.181l-3.065,9.526c-0.264,0.798,0.17,1.66,0.969,1.923c0.797,0.263,1.658-0.171,1.92-0.968
	l2.953-9.18h0.692l-5.04,15.743h4.112v12.476c0,0.992,0.806,1.798,1.798,1.798c0.994,0,1.8-0.806,1.8-1.798v-12.476h1.344v12.476
	c0,0.992,0.805,1.798,1.799,1.798c0.993,0,1.799-0.806,1.799-1.798v-12.476h4.112l-5.041-15.743h0.691l2.955,9.18
	c0.262,0.797,1.122,1.23,1.92,0.968S237.334,122.874,237.071,122.076z"/>
<circle fill="#B70050" cx="254.386" cy="103.961" r="3.868"/>
<path fill="#B70050" d="M264.237,122.076l-3.065-9.526c-0.021-0.064-0.053-0.121-0.081-0.181c-1.219-3.089-3.938-3.816-4.897-3.816
	c-0.869,0-0.671,0-1.576,0c-0.204,0-0.371,0-0.513,0c-0.904,0-0.706,0-1.575,0c-0.961,0-3.679,0.728-4.897,3.816
	c-0.029,0.06-0.06,0.116-0.081,0.181l-3.065,9.526c-0.263,0.798,0.17,1.66,0.969,1.923c0.798,0.263,1.658-0.171,1.92-0.968
	l2.953-9.18h0.693l-5.041,15.743h4.112v12.476c0,0.992,0.806,1.798,1.799,1.798s1.799-0.806,1.799-1.798v-12.476h1.344v12.476
	c0,0.992,0.805,1.798,1.799,1.798c0.993,0,1.799-0.806,1.799-1.798v-12.476h4.112l-5.04-15.743h0.69l2.955,9.18
	c0.262,0.797,1.123,1.23,1.92,0.968C264.067,123.736,264.501,122.874,264.237,122.076z"/>
<circle fill="#B70050" cx="281.553" cy="103.961" r="3.868"/>
<path fill="#B70050" d="M291.403,122.076l-3.065-9.526c-0.021-0.064-0.053-0.121-0.08-0.181c-1.22-3.089-3.938-3.816-4.897-3.816
	c-0.87,0-0.672,0-1.577,0c-0.204,0-0.371,0-0.513,0c-0.904,0-0.706,0-1.575,0c-0.961,0-3.679,0.728-4.897,3.816
	c-0.029,0.06-0.06,0.116-0.08,0.181l-3.066,9.526c-0.263,0.798,0.17,1.66,0.969,1.923c0.798,0.263,1.658-0.171,1.92-0.968
	l2.953-9.18h0.693l-5.041,15.743h4.112v12.476c0,0.992,0.806,1.798,1.799,1.798s1.799-0.806,1.799-1.798v-12.476h1.344v12.476
	c0,0.992,0.805,1.798,1.8,1.798c0.992,0,1.798-0.806,1.798-1.798v-12.476h4.112l-5.04-15.743h0.69l2.955,9.18
	c0.263,0.797,1.123,1.23,1.92,0.968C291.233,123.736,291.667,122.874,291.403,122.076z"/>
<circle fill="#B70050" cx="308.719" cy="103.961" r="3.868"/>
<path fill="#B70050" d="M318.569,122.076l-3.065-9.526c-0.021-0.064-0.052-0.121-0.08-0.181c-1.22-3.089-3.938-3.816-4.897-3.816
	c-0.87,0-0.672,0-1.577,0c-0.204,0-0.37,0-0.513,0c-0.904,0-0.706,0-1.575,0c-0.961,0-3.678,0.728-4.897,3.816
	c-0.029,0.06-0.06,0.116-0.08,0.181l-3.066,9.526c-0.263,0.798,0.17,1.66,0.969,1.923c0.798,0.263,1.658-0.171,1.92-0.968
	l2.954-9.18h0.692l-5.041,15.743h4.112v12.476c0,0.992,0.806,1.798,1.799,1.798s1.799-0.806,1.799-1.798v-12.476h1.344v12.476
	c0,0.992,0.805,1.798,1.8,1.798c0.992,0,1.798-0.806,1.798-1.798v-12.476h4.112l-5.04-15.743h0.69l2.955,9.18
	c0.263,0.797,1.123,1.23,1.92,0.968C318.399,123.736,318.833,122.874,318.569,122.076z"/>
<circle fill="#B70050" cx="336.796" cy="103.961" r="3.868"/>
<path fill="#B70050" d="M346.647,122.076l-3.065-9.526c-0.021-0.064-0.053-0.121-0.081-0.181c-1.219-3.089-3.938-3.816-4.897-3.816
	c-0.869,0-0.671,0-1.576,0c-0.204,0-0.371,0-0.513,0c-0.904,0-0.706,0-1.575,0c-0.961,0-3.679,0.728-4.897,3.816
	c-0.029,0.06-0.06,0.116-0.081,0.181l-3.065,9.526c-0.264,0.798,0.17,1.66,0.969,1.923c0.798,0.263,1.658-0.171,1.92-0.968
	l2.953-9.18h0.692l-5.04,15.743h4.112v12.476c0,0.992,0.806,1.798,1.799,1.798s1.799-0.806,1.799-1.798v-12.476h1.344v12.476
	c0,0.992,0.805,1.798,1.799,1.798c0.993,0,1.799-0.806,1.799-1.798v-12.476h4.112l-5.04-15.743h0.69l2.955,9.18
	c0.262,0.797,1.122,1.23,1.92,0.968C346.478,123.736,346.91,122.874,346.647,122.076z"/>
<circle fill="#B70050" cx="363.963" cy="103.961" r="3.868"/>
<path fill="#B70050" d="M373.813,122.076l-3.065-9.526c-0.021-0.064-0.053-0.121-0.08-0.181c-1.22-3.089-3.938-3.816-4.897-3.816
	c-0.87,0-0.672,0-1.577,0c-0.204,0-0.371,0-0.513,0c-0.904,0-0.706,0-1.575,0c-0.961,0-3.679,0.728-4.897,3.816
	c-0.029,0.06-0.06,0.116-0.08,0.181l-3.066,9.526c-0.263,0.798,0.17,1.66,0.969,1.923c0.798,0.263,1.658-0.171,1.92-0.968
	l2.953-9.18h0.693l-5.041,15.743h4.112v12.476c0,0.992,0.806,1.798,1.799,1.798s1.799-0.806,1.799-1.798v-12.476h1.344v12.476
	c0,0.992,0.805,1.798,1.8,1.798c0.992,0,1.798-0.806,1.798-1.798v-12.476h4.112l-5.04-15.743h0.69l2.955,9.18
	c0.263,0.797,1.123,1.23,1.92,0.968C373.644,123.736,374.077,122.874,373.813,122.076z"/>
<circle fill="#B70050" cx="391.129" cy="103.961" r="3.868"/>
<path fill="#B70050" d="M400.979,122.076l-3.065-9.526c-0.021-0.064-0.052-0.121-0.08-0.181c-1.22-3.089-3.938-3.816-4.897-3.816
	c-0.87,0-0.672,0-1.577,0c-0.204,0-0.37,0-0.513,0c-0.904,0-0.706,0-1.575,0c-0.961,0-3.679,0.728-4.897,3.816
	c-0.029,0.06-0.06,0.116-0.08,0.181l-3.066,9.526c-0.263,0.798,0.17,1.66,0.969,1.923c0.798,0.263,1.658-0.171,1.92-0.968
	l2.954-9.18h0.692l-5.041,15.743h4.112v12.476c0,0.992,0.806,1.798,1.799,1.798s1.799-0.806,1.799-1.798v-12.476h1.344v12.476
	c0,0.992,0.805,1.798,1.8,1.798c0.992,0,1.798-0.806,1.798-1.798v-12.476h4.112l-5.04-15.743h0.69l2.955,9.18
	c0.263,0.797,1.123,1.23,1.92,0.968C400.81,123.736,401.243,122.874,400.979,122.076z"/>
<circle fill="#B70050" cx="418.295" cy="103.961" r="3.868"/>
<path fill="#B70050" d="M428.146,122.076l-3.065-9.526c-0.021-0.064-0.052-0.121-0.08-0.181c-1.22-3.089-3.938-3.816-4.897-3.816
	c-0.87,0-0.672,0-1.577,0c-0.204,0-0.37,0-0.513,0c-0.904,0-0.706,0-1.575,0c-0.96,0-3.678,0.728-4.897,3.816
	c-0.029,0.06-0.06,0.116-0.08,0.181l-3.066,9.526c-0.263,0.798,0.17,1.66,0.969,1.923c0.798,0.263,1.658-0.171,1.92-0.968
	l2.954-9.18h0.692l-5.041,15.743H414v12.476c0,0.992,0.806,1.798,1.799,1.798s1.8-0.806,1.8-1.798v-12.476h1.343v12.476
	c0,0.992,0.806,1.798,1.8,1.798c0.992,0,1.798-0.806,1.798-1.798v-12.476h4.113l-5.041-15.743h0.69l2.955,9.18
	c0.263,0.797,1.123,1.23,1.92,0.968C427.976,123.736,428.409,122.874,428.146,122.076z"/>
<circle fill="#B70050" cx="445.461" cy="103.961" r="3.868"/>
<path fill="#B70050" d="M455.312,122.076l-3.066-9.526c-0.021-0.064-0.052-0.121-0.08-0.181c-1.22-3.089-3.938-3.816-4.897-3.816
	c-0.869,0-0.672,0-1.577,0c-0.204,0-0.37,0-0.513,0c-0.904,0-0.705,0-1.575,0c-0.96,0-3.678,0.728-4.897,3.816
	c-0.029,0.06-0.06,0.116-0.08,0.181l-3.066,9.526c-0.263,0.798,0.17,1.66,0.969,1.923c0.798,0.263,1.658-0.171,1.921-0.968
	l2.953-9.18h0.692l-5.041,15.743h4.113v12.476c0,0.992,0.806,1.798,1.798,1.798c0.994,0,1.8-0.806,1.8-1.798v-12.476h1.343v12.476
	c0,0.992,0.806,1.798,1.8,1.798c0.992,0,1.799-0.806,1.799-1.798v-12.476h4.112l-5.041-15.743h0.69l2.955,9.18
	c0.263,0.797,1.123,1.23,1.921,0.968S455.575,122.874,455.312,122.076z"/>
<circle fill="#B70050" cx="472.627" cy="103.961" r="3.868"/>
<path fill="#B70050" d="M482.479,122.076l-3.066-9.526c-0.021-0.064-0.052-0.121-0.08-0.181c-1.22-3.089-3.938-3.816-4.897-3.816
	c-0.869,0-0.672,0-1.577,0c-0.204,0-0.37,0-0.513,0c-0.904,0-0.705,0-1.575,0c-0.96,0-3.678,0.728-4.897,3.816
	c-0.028,0.06-0.06,0.116-0.08,0.181l-3.065,9.526c-0.264,0.798,0.169,1.66,0.969,1.923c0.797,0.263,1.657-0.171,1.92-0.968
	l2.953-9.18h0.692l-5.041,15.743h4.113v12.476c0,0.992,0.806,1.798,1.798,1.798c0.994,0,1.8-0.806,1.8-1.798v-12.476h1.344v12.476
	c0,0.992,0.805,1.798,1.799,1.798c0.993,0,1.799-0.806,1.799-1.798v-12.476h4.112l-5.041-15.743h0.691l2.955,9.18
	c0.262,0.797,1.122,1.23,1.92,0.968S482.741,122.874,482.479,122.076z"/>
<circle fill="#B70050" cx="499.793" cy="103.961" r="3.868"/>
<path fill="#B70050" d="M509.645,122.076l-3.066-9.526c-0.021-0.064-0.052-0.121-0.08-0.181c-1.219-3.089-3.938-3.816-4.897-3.816
	c-0.869,0-0.672,0-1.576,0c-0.205,0-0.371,0-0.514,0c-0.904,0-0.705,0-1.575,0c-0.96,0-3.678,0.728-4.897,3.816
	c-0.028,0.06-0.06,0.116-0.08,0.181l-3.065,9.526c-0.264,0.798,0.169,1.66,0.969,1.923c0.797,0.263,1.657-0.171,1.92-0.968
	l2.953-9.18h0.692l-5.04,15.743h4.112v12.476c0,0.992,0.806,1.798,1.798,1.798c0.994,0,1.8-0.806,1.8-1.798v-12.476h1.344v12.476
	c0,0.992,0.805,1.798,1.799,1.798c0.993,0,1.799-0.806,1.799-1.798v-12.476h4.112l-5.041-15.743h0.691l2.955,9.18
	c0.262,0.797,1.122,1.23,1.92,0.968S509.907,122.874,509.645,122.076z"/>
<circle fill="#B70050" cx="526.959" cy="103.961" r="3.868"/>
<path fill="#B70050" d="M536.811,122.076l-3.065-9.526c-0.021-0.064-0.053-0.121-0.081-0.181c-1.219-3.089-3.938-3.816-4.897-3.816
	c-0.869,0-0.672,0-1.576,0c-0.205,0-0.371,0-0.514,0c-0.903,0-0.705,0-1.574,0c-0.961,0-3.679,0.728-4.898,3.816
	c-0.028,0.06-0.059,0.116-0.08,0.181l-3.065,9.526c-0.263,0.798,0.17,1.66,0.969,1.923c0.798,0.263,1.658-0.171,1.92-0.968
	l2.953-9.18h0.692l-5.04,15.743h4.112v12.476c0,0.992,0.806,1.798,1.799,1.798s1.799-0.806,1.799-1.798v-12.476h1.344v12.476
	c0,0.992,0.805,1.798,1.799,1.798c0.993,0,1.799-0.806,1.799-1.798v-12.476h4.112l-5.04-15.743h0.69l2.955,9.18
	c0.262,0.797,1.122,1.23,1.92,0.968S537.073,122.874,536.811,122.076z"/>
<circle fill="#B70050" cx="9.978" cy="103.961" r="3.868"/>
<path fill="#B70050" d="M19.829,122.076l-3.066-9.526c-0.021-0.064-0.052-0.121-0.08-0.181c-1.22-3.089-3.938-3.816-4.897-3.816
	c-0.869,0-0.672,0-1.577,0c-0.204,0-0.37,0-0.513,0c-0.904,0-0.705,0-1.575,0c-0.96,0-3.678,0.728-4.897,3.816
	c-0.028,0.06-0.06,0.116-0.08,0.181l-3.065,9.526c-0.264,0.798,0.169,1.66,0.969,1.923c0.797,0.263,1.657-0.171,1.92-0.968
	l2.953-9.18h0.692l-5.04,15.743h4.112v12.476c0,0.992,0.806,1.798,1.798,1.798c0.994,0,1.8-0.806,1.8-1.798v-12.476h1.344v12.476
	c0,0.992,0.805,1.798,1.799,1.798c0.993,0,1.799-0.806,1.799-1.798v-12.476h4.112l-5.041-15.743h0.691l2.955,9.18
	c0.262,0.797,1.122,1.23,1.92,0.968S20.092,122.874,19.829,122.076z"/>
<circle fill="#B70050" cx="37.153" cy="103.961" r="3.868"/>
<path fill="#B70050" d="M47.004,122.076l-3.065-9.526c-0.021-0.064-0.053-0.121-0.08-0.181c-1.22-3.089-3.938-3.816-4.897-3.816
	c-0.87,0-0.672,0-1.577,0c-0.204,0-0.371,0-0.513,0c-0.904,0-0.706,0-1.575,0c-0.961,0-3.679,0.728-4.897,3.816
	c-0.029,0.06-0.06,0.116-0.08,0.181l-3.075,9.526c-0.264,0.798,0.169,1.66,0.972,1.923s1.664-0.171,1.926-0.968l2.954-9.18h0.692
	l-5.044,15.743h4.115v12.476c0,0.992,0.806,1.798,1.799,1.798s1.799-0.806,1.799-1.798v-12.476H37.8v12.476
	c0,0.992,0.805,1.798,1.8,1.798c0.992,0,1.798-0.806,1.798-1.798v-12.476h4.112l-5.04-15.743h0.69l2.955,9.18
	c0.263,0.797,1.123,1.23,1.92,0.968C46.834,123.736,47.268,122.874,47.004,122.076z"/>
<circle fill="#B70050" cx="64.319" cy="103.961" r="3.868"/>
<path fill="#B70050" d="M74.17,122.076l-3.065-9.526c-0.021-0.064-0.052-0.121-0.08-0.181c-1.22-3.089-3.938-3.816-4.897-3.816
	c-0.87,0-0.672,0-1.577,0c-0.204,0-0.37,0-0.513,0c-0.904,0-0.706,0-1.575,0c-0.961,0-3.678,0.728-4.897,3.816
	c-0.029,0.06-0.06,0.116-0.08,0.181l-3.066,9.526c-0.263,0.798,0.17,1.66,0.969,1.923c0.798,0.263,1.658-0.171,1.92-0.968
	l2.954-9.18h0.692l-5.041,15.743h4.112v12.476c0,0.992,0.806,1.798,1.799,1.798s1.799-0.806,1.799-1.798v-12.476h1.344v12.476
	c0,0.992,0.805,1.798,1.8,1.798c0.992,0,1.798-0.806,1.798-1.798v-12.476h4.112l-5.04-15.743h0.69l2.955,9.18
	c0.263,0.797,1.123,1.23,1.92,0.968C74,123.736,74.434,122.874,74.17,122.076z"/>
<circle fill="#B70050" cx="91.485" cy="103.961" r="3.868"/>
<path fill="#B70050" d="M101.337,122.076l-3.066-9.526c-0.021-0.064-0.052-0.121-0.08-0.181c-1.22-3.089-3.938-3.816-4.897-3.816
	c-0.869,0-0.672,0-1.577,0c-0.204,0-0.37,0-0.513,0c-0.904,0-0.706,0-1.575,0c-0.96,0-3.678,0.728-4.897,3.816
	c-0.029,0.06-0.06,0.116-0.08,0.181l-3.066,9.526c-0.263,0.798,0.17,1.66,0.969,1.923c0.798,0.263,1.658-0.171,1.921-0.968
	l2.953-9.18h0.692l-5.041,15.743h4.112v12.476c0,0.992,0.807,1.798,1.799,1.798c0.993,0,1.8-0.806,1.8-1.798v-12.476h1.343v12.476
	c0,0.992,0.806,1.798,1.8,1.798c0.992,0,1.798-0.806,1.798-1.798v-12.476h4.113l-5.041-15.743h0.69l2.955,9.18
	c0.263,0.797,1.123,1.23,1.921,0.968S101.6,122.874,101.337,122.076z"/>
<circle fill="#B70050" cx="118.556" cy="153.095" r="3.868"/>
<path fill="#B70050" d="M128.406,171.209l-3.065-9.526c-0.021-0.064-0.052-0.121-0.08-0.181c-1.22-3.089-3.938-3.817-4.897-3.817
	c-0.87,0-0.672,0-1.577,0c-0.204,0-0.37,0-0.513,0c-0.904,0-0.706,0-1.575,0c-0.961,0-3.678,0.729-4.897,3.817
	c-0.029,0.06-0.06,0.116-0.08,0.181l-3.066,9.526c-0.263,0.798,0.17,1.66,0.969,1.923c0.798,0.263,1.658-0.171,1.92-0.968
	l2.954-9.18h0.692l-5.041,15.743h4.112v12.476c0,0.992,0.806,1.798,1.799,1.798s1.799-0.806,1.799-1.798v-12.476h1.344v12.476
	c0,0.992,0.805,1.798,1.8,1.798c0.992,0,1.798-0.806,1.798-1.798v-12.476h4.112l-5.04-15.743h0.69l2.955,9.18
	c0.263,0.797,1.123,1.23,1.92,0.968C128.236,172.87,128.67,172.007,128.406,171.209z"/>
<circle fill="#B70050" cx="145.722" cy="153.095" r="3.868"/>
<path fill="#B70050" d="M155.573,171.209l-3.066-9.526c-0.021-0.064-0.052-0.121-0.08-0.181c-1.22-3.089-3.938-3.817-4.897-3.817
	c-0.869,0-0.672,0-1.577,0c-0.204,0-0.37,0-0.513,0c-0.904,0-0.706,0-1.575,0c-0.96,0-3.678,0.729-4.897,3.817
	c-0.029,0.06-0.06,0.116-0.08,0.181l-3.066,9.526c-0.263,0.798,0.17,1.66,0.969,1.923c0.798,0.263,1.658-0.171,1.921-0.968
	l2.953-9.18h0.692l-5.041,15.743h4.112v12.476c0,0.992,0.807,1.798,1.799,1.798c0.994,0,1.8-0.806,1.8-1.798v-12.476h1.343v12.476
	c0,0.992,0.806,1.798,1.8,1.798c0.992,0,1.799-0.806,1.799-1.798v-12.476h4.112l-5.041-15.743h0.69l2.955,9.18
	c0.263,0.797,1.123,1.23,1.921,0.968S155.836,172.007,155.573,171.209z"/>
<circle fill="#B70050" cx="172.888" cy="153.095" r="3.868"/>
<path fill="#B70050" d="M182.739,171.209l-3.066-9.526c-0.021-0.064-0.052-0.121-0.08-0.181c-1.22-3.089-3.938-3.817-4.897-3.817
	c-0.869,0-0.672,0-1.577,0c-0.204,0-0.37,0-0.513,0c-0.904,0-0.705,0-1.575,0c-0.96,0-3.678,0.729-4.897,3.817
	c-0.028,0.06-0.06,0.116-0.08,0.181l-3.065,9.526c-0.264,0.798,0.169,1.66,0.969,1.923c0.797,0.263,1.657-0.171,1.92-0.968
	l2.953-9.18h0.692l-5.041,15.743h4.113v12.476c0,0.992,0.806,1.798,1.798,1.798c0.994,0,1.8-0.806,1.8-1.798v-12.476h1.343v12.476
	c0,0.992,0.806,1.798,1.8,1.798c0.993,0,1.799-0.806,1.799-1.798v-12.476h4.112l-5.041-15.743h0.691l2.955,9.18
	c0.262,0.797,1.122,1.23,1.92,0.968S183.002,172.007,182.739,171.209z"/>
<circle fill="#B70050" cx="200.054" cy="153.095" r="3.868"/>
<path fill="#B70050" d="M209.905,171.209l-3.066-9.526c-0.021-0.064-0.052-0.121-0.08-0.181c-1.219-3.089-3.938-3.817-4.897-3.817
	c-0.869,0-0.672,0-1.577,0c-0.204,0-0.37,0-0.513,0c-0.904,0-0.705,0-1.575,0c-0.96,0-3.678,0.729-4.897,3.817
	c-0.028,0.06-0.06,0.116-0.08,0.181l-3.065,9.526c-0.264,0.798,0.169,1.66,0.969,1.923c0.797,0.263,1.657-0.171,1.92-0.968
	l2.953-9.18h0.692l-5.04,15.743h4.112v12.476c0,0.992,0.806,1.798,1.798,1.798c0.994,0,1.8-0.806,1.8-1.798v-12.476h1.344v12.476
	c0,0.992,0.805,1.798,1.799,1.798c0.993,0,1.799-0.806,1.799-1.798v-12.476h4.112l-5.041-15.743h0.691l2.955,9.18
	c0.262,0.797,1.122,1.23,1.92,0.968S210.168,172.007,209.905,171.209z"/>
<circle fill="#B70050" cx="227.22" cy="153.095" r="3.868"/>
<path fill="#B70050" d="M237.071,171.209l-3.066-9.526c-0.021-0.064-0.052-0.121-0.08-0.181c-1.219-3.089-3.938-3.817-4.897-3.817
	c-0.869,0-0.672,0-1.576,0c-0.205,0-0.371,0-0.514,0c-0.903,0-0.705,0-1.575,0c-0.96,0-3.678,0.729-4.896,3.817
	c-0.029,0.06-0.061,0.116-0.081,0.181l-3.065,9.526c-0.264,0.798,0.17,1.66,0.969,1.923c0.797,0.263,1.658-0.171,1.92-0.968
	l2.953-9.18h0.692l-5.04,15.743h4.112v12.476c0,0.992,0.806,1.798,1.798,1.798c0.994,0,1.8-0.806,1.8-1.798v-12.476h1.344v12.476
	c0,0.992,0.805,1.798,1.799,1.798c0.993,0,1.799-0.806,1.799-1.798v-12.476h4.112l-5.041-15.743h0.691l2.955,9.18
	c0.262,0.797,1.122,1.23,1.92,0.968S237.334,172.007,237.071,171.209z"/>
<circle fill="#B70050" cx="254.386" cy="153.095" r="3.868"/>
<path fill="#B70050" d="M264.237,171.209l-3.065-9.526c-0.021-0.064-0.053-0.121-0.081-0.181c-1.219-3.089-3.938-3.817-4.897-3.817
	c-0.869,0-0.671,0-1.576,0c-0.204,0-0.371,0-0.513,0c-0.904,0-0.706,0-1.575,0c-0.961,0-3.679,0.729-4.897,3.817
	c-0.029,0.06-0.06,0.116-0.081,0.181l-3.065,9.526c-0.263,0.798,0.17,1.66,0.969,1.923c0.798,0.263,1.658-0.171,1.92-0.968
	l2.953-9.18h0.693l-5.041,15.743h4.112v12.476c0,0.992,0.806,1.798,1.799,1.798s1.799-0.806,1.799-1.798v-12.476h1.344v12.476
	c0,0.992,0.805,1.798,1.799,1.798c0.993,0,1.799-0.806,1.799-1.798v-12.476h4.112l-5.04-15.743h0.69l2.955,9.18
	c0.262,0.797,1.123,1.23,1.92,0.968C264.067,172.87,264.501,172.007,264.237,171.209z"/>
<circle fill="#B70050" cx="281.553" cy="153.095" r="3.868"/>
<path fill="#B70050" d="M291.403,171.209l-3.065-9.526c-0.021-0.064-0.053-0.121-0.08-0.181c-1.22-3.089-3.938-3.817-4.897-3.817
	c-0.87,0-0.672,0-1.577,0c-0.204,0-0.371,0-0.513,0c-0.904,0-0.706,0-1.575,0c-0.961,0-3.679,0.729-4.897,3.817
	c-0.029,0.06-0.06,0.116-0.08,0.181l-3.066,9.526c-0.263,0.798,0.17,1.66,0.969,1.923c0.798,0.263,1.658-0.171,1.92-0.968
	l2.953-9.18h0.693l-5.041,15.743h4.112v12.476c0,0.992,0.806,1.798,1.799,1.798s1.799-0.806,1.799-1.798v-12.476h1.344v12.476
	c0,0.992,0.805,1.798,1.8,1.798c0.992,0,1.798-0.806,1.798-1.798v-12.476h4.112l-5.04-15.743h0.69l2.955,9.18
	c0.263,0.797,1.123,1.23,1.92,0.968C291.233,172.87,291.667,172.007,291.403,171.209z"/>
<circle fill="#B70050" cx="308.719" cy="153.095" r="3.868"/>
<path fill="#B70050" d="M318.569,171.209l-3.065-9.526c-0.021-0.064-0.052-0.121-0.08-0.181c-1.22-3.089-3.938-3.817-4.897-3.817
	c-0.87,0-0.672,0-1.577,0c-0.204,0-0.37,0-0.513,0c-0.904,0-0.706,0-1.575,0c-0.961,0-3.678,0.729-4.897,3.817
	c-0.029,0.06-0.06,0.116-0.08,0.181l-3.066,9.526c-0.263,0.798,0.17,1.66,0.969,1.923c0.798,0.263,1.658-0.171,1.92-0.968
	l2.954-9.18h0.692l-5.041,15.743h4.112v12.476c0,0.992,0.806,1.798,1.799,1.798s1.799-0.806,1.799-1.798v-12.476h1.344v12.476
	c0,0.992,0.805,1.798,1.8,1.798c0.992,0,1.798-0.806,1.798-1.798v-12.476h4.112l-5.04-15.743h0.69l2.955,9.18
	c0.263,0.797,1.123,1.23,1.92,0.968C318.399,172.87,318.833,172.007,318.569,171.209z"/>
<circle fill="#B70050" cx="336.796" cy="153.095" r="3.868"/>
<path fill="#B70050" d="M346.647,171.209l-3.065-9.526c-0.021-0.064-0.053-0.121-0.081-0.181c-1.219-3.089-3.938-3.817-4.897-3.817
	c-0.869,0-0.671,0-1.576,0c-0.204,0-0.371,0-0.513,0c-0.904,0-0.706,0-1.575,0c-0.961,0-3.679,0.729-4.897,3.817
	c-0.029,0.06-0.06,0.116-0.081,0.181l-3.065,9.526c-0.264,0.798,0.17,1.66,0.969,1.923c0.798,0.263,1.658-0.171,1.92-0.968
	l2.953-9.18h0.692l-5.04,15.743h4.112v12.476c0,0.992,0.806,1.798,1.799,1.798s1.799-0.806,1.799-1.798v-12.476h1.344v12.476
	c0,0.992,0.805,1.798,1.799,1.798c0.993,0,1.799-0.806,1.799-1.798v-12.476h4.112l-5.04-15.743h0.69l2.955,9.18
	c0.262,0.797,1.122,1.23,1.92,0.968C346.478,172.87,346.91,172.007,346.647,171.209z"/>
<circle fill="#B70050" cx="363.963" cy="153.095" r="3.868"/>
<path fill="#B70050" d="M373.813,171.209l-3.065-9.526c-0.021-0.064-0.053-0.121-0.08-0.181c-1.22-3.089-3.938-3.817-4.897-3.817
	c-0.87,0-0.672,0-1.577,0c-0.204,0-0.371,0-0.513,0c-0.904,0-0.706,0-1.575,0c-0.961,0-3.679,0.729-4.897,3.817
	c-0.029,0.06-0.06,0.116-0.08,0.181l-3.066,9.526c-0.263,0.798,0.17,1.66,0.969,1.923c0.798,0.263,1.658-0.171,1.92-0.968
	l2.953-9.18h0.693l-5.041,15.743h4.112v12.476c0,0.992,0.806,1.798,1.799,1.798s1.799-0.806,1.799-1.798v-12.476h1.344v12.476
	c0,0.992,0.805,1.798,1.8,1.798c0.992,0,1.798-0.806,1.798-1.798v-12.476h4.112l-5.04-15.743h0.69l2.955,9.18
	c0.263,0.797,1.123,1.23,1.92,0.968C373.644,172.87,374.077,172.007,373.813,171.209z"/>
<circle fill="#B70050" cx="391.129" cy="153.095" r="3.868"/>
<path fill="#B70050" d="M400.979,171.209l-3.065-9.526c-0.021-0.064-0.052-0.121-0.08-0.181c-1.22-3.089-3.938-3.817-4.897-3.817
	c-0.87,0-0.672,0-1.577,0c-0.204,0-0.37,0-0.513,0c-0.904,0-0.706,0-1.575,0c-0.961,0-3.679,0.729-4.897,3.817
	c-0.029,0.06-0.06,0.116-0.08,0.181l-3.066,9.526c-0.263,0.798,0.17,1.66,0.969,1.923c0.798,0.263,1.658-0.171,1.92-0.968
	l2.954-9.18h0.692l-5.041,15.743h4.112v12.476c0,0.992,0.806,1.798,1.799,1.798s1.799-0.806,1.799-1.798v-12.476h1.344v12.476
	c0,0.992,0.805,1.798,1.8,1.798c0.992,0,1.798-0.806,1.798-1.798v-12.476h4.112l-5.04-15.743h0.69l2.955,9.18
	c0.263,0.797,1.123,1.23,1.92,0.968C400.81,172.87,401.243,172.007,400.979,171.209z"/>
<circle fill="#B70050" cx="418.295" cy="153.095" r="3.868"/>
<path fill="#B70050" d="M428.146,171.209l-3.065-9.526c-0.021-0.064-0.052-0.121-0.08-0.181c-1.22-3.089-3.938-3.817-4.897-3.817
	c-0.87,0-0.672,0-1.577,0c-0.204,0-0.37,0-0.513,0c-0.904,0-0.706,0-1.575,0c-0.96,0-3.678,0.729-4.897,3.817
	c-0.029,0.06-0.06,0.116-0.08,0.181l-3.066,9.526c-0.263,0.798,0.17,1.66,0.969,1.923c0.798,0.263,1.658-0.171,1.92-0.968
	l2.954-9.18h0.692l-5.041,15.743H414v12.476c0,0.992,0.806,1.798,1.799,1.798s1.8-0.806,1.8-1.798v-12.476h1.343v12.476
	c0,0.992,0.806,1.798,1.8,1.798c0.992,0,1.798-0.806,1.798-1.798v-12.476h4.113l-5.041-15.743h0.69l2.955,9.18
	c0.263,0.797,1.123,1.23,1.92,0.968C427.976,172.87,428.409,172.007,428.146,171.209z"/>
<circle fill="#B70050" cx="445.461" cy="153.095" r="3.868"/>
<path fill="#B70050" d="M455.312,171.209l-3.066-9.526c-0.021-0.064-0.052-0.121-0.08-0.181c-1.22-3.089-3.938-3.817-4.897-3.817
	c-0.869,0-0.672,0-1.577,0c-0.204,0-0.37,0-0.513,0c-0.904,0-0.705,0-1.575,0c-0.96,0-3.678,0.729-4.897,3.817
	c-0.029,0.06-0.06,0.116-0.08,0.181l-3.066,9.526c-0.263,0.798,0.17,1.66,0.969,1.923c0.798,0.263,1.658-0.171,1.921-0.968
	l2.953-9.18h0.692l-5.041,15.743h4.113v12.476c0,0.992,0.806,1.798,1.798,1.798c0.994,0,1.8-0.806,1.8-1.798v-12.476h1.343v12.476
	c0,0.992,0.806,1.798,1.8,1.798c0.992,0,1.799-0.806,1.799-1.798v-12.476h4.112l-5.041-15.743h0.69l2.955,9.18
	c0.263,0.797,1.123,1.23,1.921,0.968S455.575,172.007,455.312,171.209z"/>
<circle fill="#B70050" cx="472.627" cy="153.095" r="3.868"/>
<path fill="#B70050" d="M482.479,171.209l-3.066-9.526c-0.021-0.064-0.052-0.121-0.08-0.181c-1.22-3.089-3.938-3.817-4.897-3.817
	c-0.869,0-0.672,0-1.577,0c-0.204,0-0.37,0-0.513,0c-0.904,0-0.705,0-1.575,0c-0.96,0-3.678,0.729-4.897,3.817
	c-0.028,0.06-0.06,0.116-0.08,0.181l-3.065,9.526c-0.264,0.798,0.169,1.66,0.969,1.923c0.797,0.263,1.657-0.171,1.92-0.968
	l2.953-9.18h0.692l-5.041,15.743h4.113v12.476c0,0.992,0.806,1.798,1.798,1.798c0.994,0,1.8-0.806,1.8-1.798v-12.476h1.344v12.476
	c0,0.992,0.805,1.798,1.799,1.798c0.993,0,1.799-0.806,1.799-1.798v-12.476h4.112l-5.041-15.743h0.691l2.955,9.18
	c0.262,0.797,1.122,1.23,1.92,0.968S482.741,172.007,482.479,171.209z"/>
<circle fill="#B70050" cx="499.793" cy="153.095" r="3.868"/>
<path fill="#B70050" d="M509.645,171.209l-3.066-9.526c-0.021-0.064-0.052-0.121-0.08-0.181c-1.219-3.089-3.938-3.817-4.897-3.817
	c-0.869,0-0.672,0-1.576,0c-0.205,0-0.371,0-0.514,0c-0.904,0-0.705,0-1.575,0c-0.96,0-3.678,0.729-4.897,3.817
	c-0.028,0.06-0.06,0.116-0.08,0.181l-3.065,9.526c-0.264,0.798,0.169,1.66,0.969,1.923c0.797,0.263,1.657-0.171,1.92-0.968
	l2.953-9.18h0.692l-5.04,15.743h4.112v12.476c0,0.992,0.806,1.798,1.798,1.798c0.994,0,1.8-0.806,1.8-1.798v-12.476h1.344v12.476
	c0,0.992,0.805,1.798,1.799,1.798c0.993,0,1.799-0.806,1.799-1.798v-12.476h4.112l-5.041-15.743h0.691l2.955,9.18
	c0.262,0.797,1.122,1.23,1.92,0.968S509.907,172.007,509.645,171.209z"/>
<circle fill="#B70050" cx="526.959" cy="153.095" r="3.868"/>
<path fill="#B70050" d="M536.811,171.209l-3.065-9.526c-0.021-0.064-0.053-0.121-0.081-0.181c-1.219-3.089-3.938-3.817-4.897-3.817
	c-0.869,0-0.672,0-1.576,0c-0.205,0-0.371,0-0.514,0c-0.903,0-0.705,0-1.574,0c-0.961,0-3.679,0.729-4.898,3.817
	c-0.028,0.06-0.059,0.116-0.08,0.181l-3.065,9.526c-0.263,0.798,0.17,1.66,0.969,1.923c0.798,0.263,1.658-0.171,1.92-0.968
	l2.953-9.18h0.692l-5.04,15.743h4.112v12.476c0,0.992,0.806,1.798,1.799,1.798s1.799-0.806,1.799-1.798v-12.476h1.344v12.476
	c0,0.992,0.805,1.798,1.799,1.798c0.993,0,1.799-0.806,1.799-1.798v-12.476h4.112l-5.04-15.743h0.69l2.955,9.18
	c0.262,0.797,1.122,1.23,1.92,0.968S537.073,172.007,536.811,171.209z"/>
<circle fill="#B70050" cx="9.978" cy="153.095" r="3.868"/>
<path fill="#B70050" d="M19.829,171.209l-3.066-9.526c-0.021-0.064-0.052-0.121-0.08-0.181c-1.22-3.089-3.938-3.817-4.897-3.817
	c-0.869,0-0.672,0-1.577,0c-0.204,0-0.37,0-0.513,0c-0.904,0-0.705,0-1.575,0c-0.96,0-3.678,0.729-4.897,3.817
	c-0.028,0.06-0.06,0.116-0.08,0.181l-3.065,9.526c-0.264,0.798,0.169,1.66,0.969,1.923c0.797,0.263,1.657-0.171,1.92-0.968
	l2.953-9.18h0.692l-5.04,15.743h4.112v12.476c0,0.992,0.806,1.798,1.798,1.798c0.994,0,1.8-0.806,1.8-1.798v-12.476h1.344v12.476
	c0,0.992,0.805,1.798,1.799,1.798c0.993,0,1.799-0.806,1.799-1.798v-12.476h4.112l-5.041-15.743h0.691l2.955,9.18
	c0.262,0.797,1.122,1.23,1.92,0.968S20.092,172.007,19.829,171.209z"/>
<circle fill="#B70050" cx="37.153" cy="153.095" r="3.868"/>
<path fill="#B70050" d="M47.004,171.209l-3.065-9.526c-0.021-0.064-0.053-0.121-0.08-0.181c-1.22-3.089-3.938-3.817-4.897-3.817
	c-0.87,0-0.672,0-1.577,0c-0.204,0-0.371,0-0.513,0c-0.904,0-0.706,0-1.575,0c-0.961,0-3.679,0.729-4.897,3.817
	c-0.029,0.06-0.06,0.116-0.08,0.181l-3.075,9.526c-0.264,0.798,0.169,1.66,0.972,1.923s1.664-0.171,1.926-0.968l2.954-9.18h0.692
	l-5.044,15.743h4.115v12.476c0,0.992,0.806,1.798,1.799,1.798s1.799-0.806,1.799-1.798v-12.476H37.8v12.476
	c0,0.992,0.805,1.798,1.8,1.798c0.992,0,1.798-0.806,1.798-1.798v-12.476h4.112l-5.04-15.743h0.69l2.955,9.18
	c0.263,0.797,1.123,1.23,1.92,0.968C46.834,172.87,47.268,172.007,47.004,171.209z"/>
<circle fill="#B70050" cx="64.319" cy="153.095" r="3.868"/>
<path fill="#B70050" d="M74.17,171.209l-3.065-9.526c-0.021-0.064-0.052-0.121-0.08-0.181c-1.22-3.089-3.938-3.817-4.897-3.817
	c-0.87,0-0.672,0-1.577,0c-0.204,0-0.37,0-0.513,0c-0.904,0-0.706,0-1.575,0c-0.961,0-3.678,0.729-4.897,3.817
	c-0.029,0.06-0.06,0.116-0.08,0.181l-3.066,9.526c-0.263,0.798,0.17,1.66,0.969,1.923c0.798,0.263,1.658-0.171,1.92-0.968
	l2.954-9.18h0.692l-5.041,15.743h4.112v12.476c0,0.992,0.806,1.798,1.799,1.798s1.799-0.806,1.799-1.798v-12.476h1.344v12.476
	c0,0.992,0.805,1.798,1.8,1.798c0.992,0,1.798-0.806,1.798-1.798v-12.476h4.112l-5.04-15.743h0.69l2.955,9.18
	c0.263,0.797,1.123,1.23,1.92,0.968C74,172.87,74.434,172.007,74.17,171.209z"/>
<circle fill="#B70050" cx="91.485" cy="153.095" r="3.868"/>
<path fill="#B70050" d="M101.337,171.209l-3.066-9.526c-0.021-0.064-0.052-0.121-0.08-0.181c-1.22-3.089-3.938-3.817-4.897-3.817
	c-0.869,0-0.672,0-1.577,0c-0.204,0-0.37,0-0.513,0c-0.904,0-0.706,0-1.575,0c-0.96,0-3.678,0.729-4.897,3.817
	c-0.029,0.06-0.06,0.116-0.08,0.181l-3.066,9.526c-0.263,0.798,0.17,1.66,0.969,1.923c0.798,0.263,1.658-0.171,1.921-0.968
	l2.953-9.18h0.692l-5.041,15.743h4.112v12.476c0,0.992,0.807,1.798,1.799,1.798c0.993,0,1.8-0.806,1.8-1.798v-12.476h1.343v12.476
	c0,0.992,0.806,1.798,1.8,1.798c0.992,0,1.798-0.806,1.798-1.798v-12.476h4.113l-5.041-15.743h0.69l2.955,9.18
	c0.263,0.797,1.123,1.23,1.921,0.968S101.6,172.007,101.337,171.209z"/>
<circle fill="#B70050" cx="118.556" cy="203.923" r="3.868"/>
<path fill="#B70050" d="M128.406,222.038l-3.065-9.527c-0.021-0.064-0.052-0.12-0.08-0.18c-1.22-3.089-3.938-3.817-4.897-3.817
	c-0.87,0-0.672,0-1.577,0c-0.204,0-0.37,0-0.513,0c-0.904,0-0.706,0-1.575,0c-0.961,0-3.678,0.729-4.897,3.817
	c-0.029,0.06-0.06,0.115-0.08,0.18l-3.066,9.527c-0.263,0.798,0.17,1.659,0.969,1.923c0.798,0.263,1.658-0.171,1.92-0.968
	l2.954-9.18h0.692l-5.041,15.743h4.112v12.475c0,0.993,0.806,1.799,1.799,1.799s1.799-0.806,1.799-1.799v-12.475h1.344v12.475
	c0,0.993,0.805,1.799,1.8,1.799c0.992,0,1.798-0.806,1.798-1.799v-12.475h4.112l-5.04-15.743h0.69l2.955,9.18
	c0.263,0.797,1.123,1.23,1.92,0.968C128.236,223.697,128.67,222.835,128.406,222.038z"/>
<circle fill="#B70050" cx="145.722" cy="203.923" r="3.868"/>
<path fill="#B70050" d="M155.573,222.038l-3.066-9.527c-0.021-0.064-0.052-0.12-0.08-0.18c-1.22-3.089-3.938-3.817-4.897-3.817
	c-0.869,0-0.672,0-1.577,0c-0.204,0-0.37,0-0.513,0c-0.904,0-0.706,0-1.575,0c-0.96,0-3.678,0.729-4.897,3.817
	c-0.029,0.06-0.06,0.115-0.08,0.18l-3.066,9.527c-0.263,0.798,0.17,1.659,0.969,1.923c0.798,0.263,1.658-0.171,1.921-0.968
	l2.953-9.18h0.692l-5.041,15.743h4.112v12.475c0,0.993,0.807,1.799,1.799,1.799c0.994,0,1.8-0.806,1.8-1.799v-12.475h1.343v12.475
	c0,0.993,0.806,1.799,1.8,1.799c0.992,0,1.799-0.806,1.799-1.799v-12.475h4.112l-5.041-15.743h0.69l2.955,9.18
	c0.263,0.797,1.123,1.23,1.921,0.968C155.402,223.697,155.836,222.835,155.573,222.038z"/>
<circle fill="#B70050" cx="172.888" cy="203.923" r="3.868"/>
<path fill="#B70050" d="M182.739,222.038l-3.066-9.527c-0.021-0.064-0.052-0.12-0.08-0.18c-1.22-3.089-3.938-3.817-4.897-3.817
	c-0.869,0-0.672,0-1.577,0c-0.204,0-0.37,0-0.513,0c-0.904,0-0.705,0-1.575,0c-0.96,0-3.678,0.729-4.897,3.817
	c-0.028,0.06-0.06,0.115-0.08,0.18l-3.065,9.527c-0.264,0.798,0.169,1.659,0.969,1.923c0.797,0.263,1.657-0.171,1.92-0.968
	l2.953-9.18h0.692l-5.041,15.743h4.113v12.475c0,0.993,0.806,1.799,1.798,1.799c0.994,0,1.8-0.806,1.8-1.799v-12.475h1.343v12.475
	c0,0.993,0.806,1.799,1.8,1.799c0.993,0,1.799-0.806,1.799-1.799v-12.475h4.112l-5.041-15.743h0.691l2.955,9.18
	c0.262,0.797,1.122,1.23,1.92,0.968C182.568,223.697,183.002,222.835,182.739,222.038z"/>
<circle fill="#B70050" cx="200.054" cy="203.923" r="3.868"/>
<path fill="#B70050" d="M209.905,222.038l-3.066-9.527c-0.021-0.064-0.052-0.12-0.08-0.18c-1.219-3.089-3.938-3.817-4.897-3.817
	c-0.869,0-0.672,0-1.577,0c-0.204,0-0.37,0-0.513,0c-0.904,0-0.705,0-1.575,0c-0.96,0-3.678,0.729-4.897,3.817
	c-0.028,0.06-0.06,0.115-0.08,0.18l-3.065,9.527c-0.264,0.798,0.169,1.659,0.969,1.923c0.797,0.263,1.657-0.171,1.92-0.968
	l2.953-9.18h0.692l-5.04,15.743h4.112v12.475c0,0.993,0.806,1.799,1.798,1.799c0.994,0,1.8-0.806,1.8-1.799v-12.475h1.344v12.475
	c0,0.993,0.805,1.799,1.799,1.799c0.993,0,1.799-0.806,1.799-1.799v-12.475h4.112l-5.041-15.743h0.691l2.955,9.18
	c0.262,0.797,1.122,1.23,1.92,0.968C209.734,223.697,210.168,222.835,209.905,222.038z"/>
<circle fill="#B70050" cx="227.22" cy="203.923" r="3.868"/>
<path fill="#B70050" d="M237.071,222.038l-3.066-9.527c-0.021-0.064-0.052-0.12-0.08-0.18c-1.219-3.089-3.938-3.817-4.897-3.817
	c-0.869,0-0.672,0-1.576,0c-0.205,0-0.371,0-0.514,0c-0.903,0-0.705,0-1.575,0c-0.96,0-3.678,0.729-4.896,3.817
	c-0.029,0.06-0.061,0.115-0.081,0.18l-3.065,9.527c-0.264,0.798,0.17,1.659,0.969,1.923c0.797,0.263,1.658-0.171,1.92-0.968
	l2.953-9.18h0.692l-5.04,15.743h4.112v12.475c0,0.993,0.806,1.799,1.798,1.799c0.994,0,1.8-0.806,1.8-1.799v-12.475h1.344v12.475
	c0,0.993,0.805,1.799,1.799,1.799c0.993,0,1.799-0.806,1.799-1.799v-12.475h4.112l-5.041-15.743h0.691l2.955,9.18
	c0.262,0.797,1.122,1.23,1.92,0.968C236.9,223.697,237.334,222.835,237.071,222.038z"/>
<circle fill="#B70050" cx="254.386" cy="203.923" r="3.868"/>
<path fill="#B70050" d="M264.237,222.038l-3.065-9.527c-0.021-0.064-0.053-0.12-0.081-0.18c-1.219-3.089-3.938-3.817-4.897-3.817
	c-0.869,0-0.671,0-1.576,0c-0.204,0-0.371,0-0.513,0c-0.904,0-0.706,0-1.575,0c-0.961,0-3.679,0.729-4.897,3.817
	c-0.029,0.06-0.06,0.115-0.081,0.18l-3.065,9.527c-0.263,0.798,0.17,1.659,0.969,1.923c0.798,0.263,1.658-0.171,1.92-0.968
	l2.953-9.18h0.693l-5.041,15.743h4.112v12.475c0,0.993,0.806,1.799,1.799,1.799s1.799-0.806,1.799-1.799v-12.475h1.344v12.475
	c0,0.993,0.805,1.799,1.799,1.799c0.993,0,1.799-0.806,1.799-1.799v-12.475h4.112l-5.04-15.743h0.69l2.955,9.18
	c0.262,0.797,1.123,1.23,1.92,0.968C264.067,223.697,264.501,222.835,264.237,222.038z"/>
<circle fill="#B70050" cx="281.553" cy="203.923" r="3.868"/>
<path fill="#B70050" d="M291.403,222.038l-3.065-9.527c-0.021-0.064-0.053-0.12-0.08-0.18c-1.22-3.089-3.938-3.817-4.897-3.817
	c-0.87,0-0.672,0-1.577,0c-0.204,0-0.371,0-0.513,0c-0.904,0-0.706,0-1.575,0c-0.961,0-3.679,0.729-4.897,3.817
	c-0.029,0.06-0.06,0.115-0.08,0.18l-3.066,9.527c-0.263,0.798,0.17,1.659,0.969,1.923c0.798,0.263,1.658-0.171,1.92-0.968
	l2.953-9.18h0.693l-5.041,15.743h4.112v12.475c0,0.993,0.806,1.799,1.799,1.799s1.799-0.806,1.799-1.799v-12.475h1.344v12.475
	c0,0.993,0.805,1.799,1.8,1.799c0.992,0,1.798-0.806,1.798-1.799v-12.475h4.112l-5.04-15.743h0.69l2.955,9.18
	c0.263,0.797,1.123,1.23,1.92,0.968C291.233,223.697,291.667,222.835,291.403,222.038z"/>
<circle fill="#B70050" cx="308.719" cy="203.923" r="3.868"/>
<path fill="#B70050" d="M318.569,222.038l-3.065-9.527c-0.021-0.064-0.052-0.12-0.08-0.18c-1.22-3.089-3.938-3.817-4.897-3.817
	c-0.87,0-0.672,0-1.577,0c-0.204,0-0.37,0-0.513,0c-0.904,0-0.706,0-1.575,0c-0.961,0-3.678,0.729-4.897,3.817
	c-0.029,0.06-0.06,0.115-0.08,0.18l-3.066,9.527c-0.263,0.798,0.17,1.659,0.969,1.923c0.798,0.263,1.658-0.171,1.92-0.968
	l2.954-9.18h0.692l-5.041,15.743h4.112v12.475c0,0.993,0.806,1.799,1.799,1.799s1.799-0.806,1.799-1.799v-12.475h1.344v12.475
	c0,0.993,0.805,1.799,1.8,1.799c0.992,0,1.798-0.806,1.798-1.799v-12.475h4.112l-5.04-15.743h0.69l2.955,9.18
	c0.263,0.797,1.123,1.23,1.92,0.968C318.399,223.697,318.833,222.835,318.569,222.038z"/>
<circle fill="#B70050" cx="336.796" cy="203.923" r="3.868"/>
<path fill="#B70050" d="M346.647,222.038l-3.065-9.527c-0.021-0.064-0.053-0.12-0.081-0.18c-1.219-3.089-3.938-3.817-4.897-3.817
	c-0.869,0-0.671,0-1.576,0c-0.204,0-0.371,0-0.513,0c-0.904,0-0.706,0-1.575,0c-0.961,0-3.679,0.729-4.897,3.817
	c-0.029,0.06-0.06,0.115-0.081,0.18l-3.065,9.527c-0.264,0.798,0.17,1.659,0.969,1.923c0.798,0.263,1.658-0.171,1.92-0.968
	l2.953-9.18h0.692l-5.04,15.743h4.112v12.475c0,0.993,0.806,1.799,1.799,1.799s1.799-0.806,1.799-1.799v-12.475h1.344v12.475
	c0,0.993,0.805,1.799,1.799,1.799c0.993,0,1.799-0.806,1.799-1.799v-12.475h4.112l-5.04-15.743h0.69l2.955,9.18
	c0.262,0.797,1.122,1.23,1.92,0.968C346.478,223.697,346.91,222.835,346.647,222.038z"/>
<circle fill="#B70050" cx="363.963" cy="203.923" r="3.868"/>
<path fill="#B70050" d="M373.813,222.038l-3.065-9.527c-0.021-0.064-0.053-0.12-0.08-0.18c-1.22-3.089-3.938-3.817-4.897-3.817
	c-0.87,0-0.672,0-1.577,0c-0.204,0-0.371,0-0.513,0c-0.904,0-0.706,0-1.575,0c-0.961,0-3.679,0.729-4.897,3.817
	c-0.029,0.06-0.06,0.115-0.08,0.18l-3.066,9.527c-0.263,0.798,0.17,1.659,0.969,1.923c0.798,0.263,1.658-0.171,1.92-0.968
	l2.953-9.18h0.693l-5.041,15.743h4.112v12.475c0,0.993,0.806,1.799,1.799,1.799s1.799-0.806,1.799-1.799v-12.475h1.344v12.475
	c0,0.993,0.805,1.799,1.8,1.799c0.992,0,1.798-0.806,1.798-1.799v-12.475h4.112l-5.04-15.743h0.69l2.955,9.18
	c0.263,0.797,1.123,1.23,1.92,0.968C373.644,223.697,374.077,222.835,373.813,222.038z"/>
<circle fill="#B70050" cx="391.129" cy="203.923" r="3.868"/>
<path fill="#B70050" d="M400.979,222.038l-3.065-9.527c-0.021-0.064-0.052-0.12-0.08-0.18c-1.22-3.089-3.938-3.817-4.897-3.817
	c-0.87,0-0.672,0-1.577,0c-0.204,0-0.37,0-0.513,0c-0.904,0-0.706,0-1.575,0c-0.961,0-3.679,0.729-4.897,3.817
	c-0.029,0.06-0.06,0.115-0.08,0.18l-3.066,9.527c-0.263,0.798,0.17,1.659,0.969,1.923c0.798,0.263,1.658-0.171,1.92-0.968
	l2.954-9.18h0.692l-5.041,15.743h4.112v12.475c0,0.993,0.806,1.799,1.799,1.799s1.799-0.806,1.799-1.799v-12.475h1.344v12.475
	c0,0.993,0.805,1.799,1.8,1.799c0.992,0,1.798-0.806,1.798-1.799v-12.475h4.112l-5.04-15.743h0.69l2.955,9.18
	c0.263,0.797,1.123,1.23,1.92,0.968C400.81,223.697,401.243,222.835,400.979,222.038z"/>
<circle fill="#B70050" cx="418.295" cy="203.923" r="3.868"/>
<path fill="#B70050" d="M428.146,222.038l-3.065-9.527c-0.021-0.064-0.052-0.12-0.08-0.18c-1.22-3.089-3.938-3.817-4.897-3.817
	c-0.87,0-0.672,0-1.577,0c-0.204,0-0.37,0-0.513,0c-0.904,0-0.706,0-1.575,0c-0.96,0-3.678,0.729-4.897,3.817
	c-0.029,0.06-0.06,0.115-0.08,0.18l-3.066,9.527c-0.263,0.798,0.17,1.659,0.969,1.923c0.798,0.263,1.658-0.171,1.92-0.968
	l2.954-9.18h0.692l-5.041,15.743H414v12.475c0,0.993,0.806,1.799,1.799,1.799s1.8-0.806,1.8-1.799v-12.475h1.343v12.475
	c0,0.993,0.806,1.799,1.8,1.799c0.992,0,1.798-0.806,1.798-1.799v-12.475h4.113l-5.041-15.743h0.69l2.955,9.18
	c0.263,0.797,1.123,1.23,1.92,0.968C427.976,223.697,428.409,222.835,428.146,222.038z"/>
<circle fill="#008DB3" cx="445.461" cy="203.923" r="3.868"/>
<path fill="#008DB3" d="M455.312,222.038l-3.066-9.527c-0.021-0.064-0.052-0.12-0.08-0.18c-1.22-3.089-3.938-3.817-4.897-3.817
	c-0.869,0-0.672,0-1.577,0c-0.204,0-0.37,0-0.513,0c-0.904,0-0.705,0-1.575,0c-0.96,0-3.678,0.729-4.897,3.817
	c-0.029,0.06-0.06,0.115-0.08,0.18l-3.066,9.527c-0.263,0.798,0.17,1.659,0.969,1.923c0.798,0.263,1.658-0.171,1.921-0.968
	l2.953-9.18h0.692l-5.041,15.743h4.113v12.475c0,0.993,0.806,1.799,1.798,1.799c0.994,0,1.8-0.806,1.8-1.799v-12.475h1.343v12.475
	c0,0.993,0.806,1.799,1.8,1.799c0.992,0,1.799-0.806,1.799-1.799v-12.475h4.112l-5.041-15.743h0.69l2.955,9.18
	c0.263,0.797,1.123,1.23,1.921,0.968C455.142,223.697,455.575,222.835,455.312,222.038z"/>
<circle fill="#008DB3" cx="472.627" cy="203.923" r="3.868"/>
<path fill="#008DB3" d="M482.479,222.038l-3.066-9.527c-0.021-0.064-0.052-0.12-0.08-0.18c-1.22-3.089-3.938-3.817-4.897-3.817
	c-0.869,0-0.672,0-1.577,0c-0.204,0-0.37,0-0.513,0c-0.904,0-0.705,0-1.575,0c-0.96,0-3.678,0.729-4.897,3.817
	c-0.028,0.06-0.06,0.115-0.08,0.18l-3.065,9.527c-0.264,0.798,0.169,1.659,0.969,1.923c0.797,0.263,1.657-0.171,1.92-0.968
	l2.953-9.18h0.692l-5.041,15.743h4.113v12.475c0,0.993,0.806,1.799,1.798,1.799c0.994,0,1.8-0.806,1.8-1.799v-12.475h1.344v12.475
	c0,0.993,0.805,1.799,1.799,1.799c0.993,0,1.799-0.806,1.799-1.799v-12.475h4.112l-5.041-15.743h0.691l2.955,9.18
	c0.262,0.797,1.122,1.23,1.92,0.968C482.308,223.697,482.741,222.835,482.479,222.038z"/>
<circle fill="#008DB3" cx="499.793" cy="203.923" r="3.868"/>
<path fill="#008DB3" d="M509.645,222.038l-3.066-9.527c-0.021-0.064-0.052-0.12-0.08-0.18c-1.219-3.089-3.938-3.817-4.897-3.817
	c-0.869,0-0.672,0-1.576,0c-0.205,0-0.371,0-0.514,0c-0.904,0-0.705,0-1.575,0c-0.96,0-3.678,0.729-4.897,3.817
	c-0.028,0.06-0.06,0.115-0.08,0.18l-3.065,9.527c-0.264,0.798,0.169,1.659,0.969,1.923c0.797,0.263,1.657-0.171,1.92-0.968
	l2.953-9.18h0.692l-5.04,15.743h4.112v12.475c0,0.993,0.806,1.799,1.798,1.799c0.994,0,1.8-0.806,1.8-1.799v-12.475h1.344v12.475
	c0,0.993,0.805,1.799,1.799,1.799c0.993,0,1.799-0.806,1.799-1.799v-12.475h4.112l-5.041-15.743h0.691l2.955,9.18
	c0.262,0.797,1.122,1.23,1.92,0.968C509.474,223.697,509.907,222.835,509.645,222.038z"/>
<circle fill="#4D4D4D" cx="526.959" cy="203.923" r="3.868"/>
<path fill="#4D4D4D" d="M536.811,222.038l-3.065-9.527c-0.021-0.064-0.053-0.12-0.081-0.18c-1.219-3.089-3.938-3.817-4.897-3.817
	c-0.869,0-0.672,0-1.576,0c-0.205,0-0.371,0-0.514,0c-0.903,0-0.705,0-1.574,0c-0.961,0-3.679,0.729-4.898,3.817
	c-0.028,0.06-0.059,0.115-0.08,0.18l-3.065,9.527c-0.263,0.798,0.17,1.659,0.969,1.923c0.798,0.263,1.658-0.171,1.92-0.968
	l2.953-9.18h0.692l-5.04,15.743h4.112v12.475c0,0.993,0.806,1.799,1.799,1.799s1.799-0.806,1.799-1.799v-12.475h1.344v12.475
	c0,0.993,0.805,1.799,1.799,1.799c0.993,0,1.799-0.806,1.799-1.799v-12.475h4.112l-5.04-15.743h0.69l2.955,9.18
	c0.262,0.797,1.122,1.23,1.92,0.968C536.64,223.697,537.073,222.835,536.811,222.038z"/>
<circle fill="#B70050" cx="9.978" cy="203.923" r="3.868"/>
<path fill="#B70050" d="M19.829,222.038l-3.066-9.527c-0.021-0.064-0.052-0.12-0.08-0.18c-1.22-3.089-3.938-3.817-4.897-3.817
	c-0.869,0-0.672,0-1.577,0c-0.204,0-0.37,0-0.513,0c-0.904,0-0.705,0-1.575,0c-0.96,0-3.678,0.729-4.897,3.817
	c-0.028,0.06-0.06,0.115-0.08,0.18l-3.065,9.527c-0.264,0.798,0.169,1.659,0.969,1.923c0.797,0.263,1.657-0.171,1.92-0.968
	l2.953-9.18h0.692l-5.04,15.743h4.112v12.475c0,0.993,0.806,1.799,1.798,1.799c0.994,0,1.8-0.806,1.8-1.799v-12.475h1.344v12.475
	c0,0.993,0.805,1.799,1.799,1.799c0.993,0,1.799-0.806,1.799-1.799v-12.475h4.112l-5.041-15.743h0.691l2.955,9.18
	c0.262,0.797,1.122,1.23,1.92,0.968C19.658,223.697,20.092,222.835,19.829,222.038z"/>
<circle fill="#B70050" cx="37.153" cy="203.923" r="3.868"/>
<path fill="#B70050" d="M47.004,222.038l-3.065-9.527c-0.021-0.064-0.053-0.12-0.08-0.18c-1.22-3.089-3.938-3.817-4.897-3.817
	c-0.87,0-0.672,0-1.577,0c-0.204,0-0.371,0-0.513,0c-0.904,0-0.706,0-1.575,0c-0.961,0-3.679,0.729-4.897,3.817
	c-0.029,0.06-0.06,0.115-0.08,0.18l-3.075,9.527c-0.264,0.798,0.169,1.659,0.972,1.923c0.803,0.263,1.664-0.171,1.926-0.968
	l2.954-9.18h0.692l-5.044,15.743h4.115v12.475c0,0.993,0.806,1.799,1.799,1.799s1.799-0.806,1.799-1.799v-12.475H37.8v12.475
	c0,0.993,0.805,1.799,1.8,1.799c0.992,0,1.798-0.806,1.798-1.799v-12.475h4.112l-5.04-15.743h0.69l2.955,9.18
	c0.263,0.797,1.123,1.23,1.92,0.968C46.834,223.697,47.268,222.835,47.004,222.038z"/>
<circle fill="#B70050" cx="64.319" cy="203.923" r="3.868"/>
<path fill="#B70050" d="M74.17,222.038l-3.065-9.527c-0.021-0.064-0.052-0.12-0.08-0.18c-1.22-3.089-3.938-3.817-4.897-3.817
	c-0.87,0-0.672,0-1.577,0c-0.204,0-0.37,0-0.513,0c-0.904,0-0.706,0-1.575,0c-0.961,0-3.678,0.729-4.897,3.817
	c-0.029,0.06-0.06,0.115-0.08,0.18l-3.066,9.527c-0.263,0.798,0.17,1.659,0.969,1.923c0.798,0.263,1.658-0.171,1.92-0.968
	l2.954-9.18h0.692l-5.041,15.743h4.112v12.475c0,0.993,0.806,1.799,1.799,1.799s1.799-0.806,1.799-1.799v-12.475h1.344v12.475
	c0,0.993,0.805,1.799,1.8,1.799c0.992,0,1.798-0.806,1.798-1.799v-12.475h4.112l-5.04-15.743h0.69l2.955,9.18
	c0.263,0.797,1.123,1.23,1.92,0.968C74,223.697,74.434,222.835,74.17,222.038z"/>
<circle fill="#B70050" cx="91.485" cy="203.923" r="3.868"/>
<path fill="#B70050" d="M101.337,222.038l-3.066-9.527c-0.021-0.064-0.052-0.12-0.08-0.18c-1.22-3.089-3.938-3.817-4.897-3.817
	c-0.869,0-0.672,0-1.577,0c-0.204,0-0.37,0-0.513,0c-0.904,0-0.706,0-1.575,0c-0.96,0-3.678,0.729-4.897,3.817
	c-0.029,0.06-0.06,0.115-0.08,0.18l-3.066,9.527c-0.263,0.798,0.17,1.659,0.969,1.923c0.798,0.263,1.658-0.171,1.921-0.968
	l2.953-9.18h0.692l-5.041,15.743h4.112v12.475c0,0.993,0.807,1.799,1.799,1.799c0.993,0,1.8-0.806,1.8-1.799v-12.475h1.343v12.475
	c0,0.993,0.806,1.799,1.8,1.799c0.992,0,1.798-0.806,1.798-1.799v-12.475h4.113l-5.041-15.743h0.69l2.955,9.18
	c0.263,0.797,1.123,1.23,1.921,0.968C101.166,223.697,101.6,222.835,101.337,222.038z"/>
</svg>
